<?xml version="1.0" encoding="utf-8"?>
<!-- Generator: Adobe Illustrator 16.0.3, SVG Export Plug-In . SVG Version: 6.00 Build 0)  -->
<svg version="1.2" baseProfile="tiny" id="Calque_1"
	 xmlns="http://www.w3.org/2000/svg" xmlns:xlink="http://www.w3.org/1999/xlink" x="0px" y="0px" width="1920px" height="65px"
	 viewBox="0 0 1920 65" overflow="visible" xml:space="preserve">
<g id="Calque_3">
	<g>
		<path fill="#FEFFFA" d="M1921.556,27.765c-0.098-0.257-0.178-0.516-0.215-0.769c-0.202-1.389-0.294-2.476,0.016-3.867
			c0.039-0.179,0.087-0.36,0.133-0.542c-0.288-1.015-0.201-2.059,0.165-2.997c-0.549-6.778-1.143-13.514-0.899-20.292
			c-3.801-0.624-7.533-0.248-11.425-0.297c-3.836-0.049-7.664-0.284-11.5-0.333c-2.195-0.028-3.642-1.208-4.343-2.748
			c-23.055,0.67-46.111,1.166-69.18,1.471c-39.607,0.522-79.227,0.213-118.832-0.212c-43.78-0.468-87.555-1.39-131.327-2.389
			c-0.132,2.39-1.737,4.692-4.823,4.712c-23.774,0.154-47.538-1.06-71.31-1.327c-22.926-0.258-45.856-0.267-68.78,0.151
			c-11.182,0.204-22.414,0.917-33.596,0.71c-5.586-0.104-11.132-0.728-16.703-1.087c-5.703-0.368-11.352-0.107-17.055-0.215
			c-0.701-0.013-1.401-0.044-2.102-0.066c-11.331,1.767-23.383,2.293-34.766,1.756c-6.799-0.32-13.578-0.778-20.354-1.421
			c-1.937-0.184-3.888-0.279-5.829-0.421c-0.829,0.398-1.743,0.609-2.701,0.714c-0.484,0.053-0.961,0.02-1.434-0.059
			c-0.326,0.061-0.667,0.102-1.036,0.1c-6.35-0.031-12.454-1.771-18.762-2.075c-5.521-0.266-11.045-0.377-16.571-0.462
			c-12.377-0.19-24.721-0.384-37.1-0.075c-24.182,0.603-48.289,1.313-72.444,2.599c-23.637,1.257-47.255-0.299-70.909-0.25
			c-11.594,0.024-23.571-1.313-35.096,0.083c-10.999,1.333-22.043,1.534-33.118,1.348c-1.735-0.029-2.999-0.779-3.8-1.854
			c-10.421-0.034-20.882-0.12-31.269-0.547c-6.845-0.282-13.644-1.039-20.434-1.883c-0.795,0.77-1.905,1.271-3.331,1.283
			c-11.828,0.105-23.51-1.301-35.358-0.666c-11.419,0.612-22.783,1.69-34.229,1.431c-11.594-0.263-23.154,1.053-34.73,0.491
			c-11.641-0.565-23.28-0.818-34.934-0.72c-1.812,0.056-3.624,0.106-5.436,0.163c-38.264,1.196-76.495,3.458-114.721,5.492
			c-38.066,2.025-76.135,3.961-114.222,5.553c-18.98,0.793-37.969,1.283-56.961,1.733c-5.805,0.234-11.61,0.468-17.415,0.702
			c-11.56,0.342-23.122,0.534-34.685,0.576c-17.376,0.176-34.763-0.032-52.139-0.076c-5.844,0.001-11.688,0.002-17.53,0.004
			c-12.549-0.293-25.095-0.638-37.64-1.034c-37.566-1.11-75.124-2.645-112.688-3.863c-18.793-0.61-37.589-1.016-56.389-1.376
			c-6.257-0.098-12.514-0.196-18.771-0.294c-11.856-0.521-23.715-1.001-35.576-1.445c-0.738-0.011-1.239,0.21-1.509,0.659
			c-0.843,0.105-1.349,0.543-1.535,1.293c-0.15-0.004-0.301-0.01-0.451-0.014c-0.354,0.044-0.634,0.161-0.881,0.31
			c-0.898,0.086-1.364,0.596-1.402,1.526c-0.387,0.137-0.603,0.376-0.686,0.689c-0.079-0.003-0.157-0.006-0.236-0.009
			c-1.047,0.061-1.604,0.603-1.709,1.591c-0.521,0.132-0.854,0.447-0.997,0.952c-0.726,0.175-1.152,0.644-1.278,1.41
			c-0.259,0.139-0.435,0.36-0.537,0.654c-0.706,0.064-1.177,0.36-1.399,0.9c-0.61,0.199-0.994,0.622-1.159,1.262
			c-0.754,0.206-1.169,0.747-1.204,1.663c0.009,0.041,0.025,0.077,0.034,0.117c-0.708,0.072-1.134,0.424-1.285,1.049
			c-0.848,0.183-1.325,0.73-1.391,1.688c0.018,0.101,0.055,0.19,0.077,0.289c-0.961,0.117-1.476,0.675-1.497,1.721
			c0.058,0.261,0.153,0.501,0.231,0.75c-0.376,0.287-0.558,0.765-0.531,1.449c0.584,2.072,1.729,3.812,3.434,5.221
			c2.656,2.897,5.443,5.66,8.362,8.29c1.424,1.694,3.174,2.823,5.25,3.391c0.194,0,0.39,0.002,0.585,0.004
			c0.126,0.117,0.248,0.24,0.375,0.357c1.876,2.172,4.12,3.79,6.73,4.854c68.57-0.021,137.075,3.1,205.586,5.531
			c18.811,0.668,37.621,1.168,56.438,1.629c5.864-0.018,11.729-0.031,17.592-0.047c11.637,0.026,23.271,0.051,34.907,0.071
			c14.8,0.028,29.585-0.218,44.375-0.593c5.367-0.116,10.734-0.246,16.103-0.398c5.885-0.279,11.77-0.558,17.654-0.837
			c12.763-0.327,25.521-0.735,38.276-1.223c70.152-2.46,140.221-7.164,210.326-10.634c17.362-0.858,34.739-1.473,52.121-1.973
			c18.458-0.496,36.919-0.884,55.375-1.298c38.583-0.866,77.175-1.386,115.765-1.847c70.646-0.845,141.3-1.094,211.949-1.417
			c38.874-0.179,77.747-0.497,116.621-0.572c39.554-0.076,79.107,0.601,118.652,1.321c79.265,1.443,158.506,3.787,237.772,4.996
			c64.813,0.986,129.622,0.834,194.405-0.949c11.568-0.295,23.135-0.664,34.699-1.067
			C1921.378,33.206,1921.374,30.483,1921.556,27.765z"/>
	</g>
	<g>
		<path fill="#FEFFFA" d="M1921.555,27.764c-0.097-0.257-0.177-0.515-0.214-0.768c-0.202-1.389-0.294-2.476,0.016-3.867
			c0.039-0.179,0.087-0.36,0.133-0.542c-0.149-0.527-0.196-1.062-0.157-1.586c-9.939,0.038-19.877,0.166-29.815,0.31
			c-3.76,0.054-7.518,0.108-11.277,0.164c-10.34,0.03-20.666-0.388-30.975-1.251c-38.602-2.188-77.211-4.222-115.827-6.091
			c-83.497-4.043-167.053-6.478-250.651-6.404c-19.306,0.017-38.606,0.354-57.906,0.739c-19.313,0.383-38.643,0.158-57.955,0.019
			c-19.402-0.138-38.807-0.498-58.207-0.772c-25.837-0.364-51.669-0.417-77.509-0.309c-17.659,0.075-35.318,0.622-52.975,0.947
			c-16.872,0.31-33.729,0.741-50.596,1.338c-16.922,0.6-33.807,2.043-50.694,3.24c-23.724,1.683-47.427,3.431-71.104,5.665
			c-38.313,3.616-76.589,7.638-114.896,11.344c-18.998,1.839-38.015,3.421-57.041,4.94c-23.715,1.896-47.526,2.851-71.291,3.878
			c-35.412,1.533-70.865,1.695-106.305,1.438c-6.615-0.166-13.229-0.332-19.845-0.498c-13.23-0.327-26.463-0.639-39.695-0.936
			c-26.465-0.609-52.934-1.102-79.401-1.564c-39.709-0.694-79.422-1.088-119.136-1.334c-19.861-0.12-39.723-0.106-59.584-0.09
			c-26.313,0.025-52.595,0.469-78.898,1.103c-39.018,0.938-78.028,2.183-117.042,3.329c-19.479,0.572-38.958,1.096-58.438,1.604
			c-12.984,0.353-25.97,0.631-38.957,0.834c-12.314-0.162-24.626-0.432-36.935-0.804c-0.723-0.008-1.215,0.209-1.484,0.64
			c-0.783,0.103-1.282,0.479-1.495,1.133C5.182,43.604,4.967,43.6,4.75,43.591c-0.565,0.077-0.982,0.3-1.273,0.646
			c-0.547,0.22-0.83,0.697-0.849,1.429c-0.373,0.133-0.589,0.358-0.681,0.653c-0.075-0.004-0.148-0.004-0.224-0.008
			c-1.052,0.068-1.607,0.619-1.702,1.615c-0.521,0.133-0.857,0.443-1,0.944c-0.705,0.179-1.119,0.64-1.247,1.381
			c-0.249,5.755-0.548,11.512-0.596,17.301c11.88-0.583,23.51,0.695,35.387,1.116c12.469,0.442,25.11,0.195,37.575-0.317
			c12.585-0.518,25.247,1.703,37.792,0.504c10.969-1.05,21.672-2.821,32.661-1.517c2.862-0.236,5.725-0.445,8.592-0.573
			c7.968-0.354,15.651,0.18,23.224,1.366c2.542-0.352,5.056-0.416,7.563-0.335c0.665-0.132,1.394-0.134,2.185,0.05
			c0.104,0.023,0.207,0.047,0.31,0.071c4.443,0.273,8.884,0.81,13.437,0.727c9.644-0.177,19.274-1.448,28.94-1.659
			c19.098-0.418,38.215-0.591,57.317-0.884c18.859-0.289,37.776,0.023,56.625,0.742c18.139,0.692,36.233,2.51,54.376,0.824
			c0.257-0.023,0.502-0.03,0.738-0.021c0.79-1.124,2.098-1.881,3.928-1.813c6.412,0.239,12.769,2.938,19.167,2.5
			c6.625-0.453,13.097-0.904,19.738-0.465c6.744,0.445,13.1-0.48,19.8-0.654c6.912-0.18,13.847,0.603,20.711,1.328
			c6.921,0.731,13.876,1.572,20.843,1.708c7.042,0.137,14.03-0.518,21.059-0.792c6.791-0.265,13.573,0.505,20.348,0.209
			c6.985-0.306,13.836-1.741,20.833-0.834c0.11,0.015,0.214,0.038,0.32,0.058c24.422-2.593,48.896-3.216,73.513-3.224
			c1.589-0.001,2.781,0.607,3.584,1.522c6.972-0.044,13.954,1.14,20.916,1.437c1.019,0.043,2.038,0.068,3.057,0.103
			c4.146,0.089,8.294,0.143,12.443,0.104c0.47-0.004,0.901,0.05,1.302,0.145c2.455,0.014,4.91,0.021,7.366,0.022
			c17.768,0.01,35.538,0.237,53.295,0.869c17.542,0.623,35.029,0.464,52.578,0.237c12.424-0.16,25.244-1.246,37.815-0.852
			c8.366-0.368,16.735-0.606,25.109-0.545c19.078,0.141,38.117,0.983,57.203,0.623c0.439-0.009,0.846,0.034,1.226,0.113
			c31.308-3.114,62.592-6.482,93.892-9.647c6.458-0.637,12.917-1.273,19.375-1.91c12.203-1.352,24.438-2.345,36.696-2.98
			c16.938-1.113,33.871-2.305,50.806-3.479c5.597-0.392,11.191-0.783,16.787-1.175c6.542-0.343,13.088-0.614,19.636-0.831
			c1.892-0.048,3.782-0.099,5.675-0.137c22.297-0.624,44.615-0.637,66.918-1.116c38.501-0.829,77.013-0.05,115.51,0.613
			c19.322,0.333,38.645,0.565,57.968,0.708c25.792,0.191,51.569-0.584,77.355-0.898c83.289-1.017,166.622,2.092,249.809,5.9
			c38.474,1.763,76.929,3.908,115.38,6.068c16.666,0.937,33.31,2.076,49.995,2.51c5.61-0.02,11.22-0.118,16.826-0.256
			c4.549-0.063,9.099-0.15,13.646-0.297c1.347-0.045,2.691-0.058,4.039-0.092c0.248-0.003,0.496-0.004,0.744-0.006
			c-0.413-4.513-0.367-9.181,0.047-13.218C1921.889,42.059,1921.074,34.898,1921.555,27.764z"/>
	</g>
	<g>
		<path fill="#FEFFFA" d="M337.457,25.141c0.521-1.559-3.038-5.099-4.434-6.408c-0.772-1.488-1.868-2.745-3.323-3.747
			c-2.877-2.635-5.875-5.127-8.993-7.474c-1.557-1.555-3.39-2.518-5.495-2.89c-51.553,0.281-103.098,1.06-154.645,1.799
			C134.798,6.792,109.03,7.076,83.26,7.29C70.379,7.406,57.497,7.441,44.615,7.394C32.413,6.997,20.216,6.483,8.023,5.854
			C7.262,5.834,6.749,6.067,6.48,6.546c-0.855,0.095-1.371,0.532-1.57,1.29C4.75,7.829,4.59,7.824,4.431,7.817
			C4.126,7.852,3.873,7.938,3.646,8.051C2.736,8.115,2.25,8.609,2.188,9.532C1.795,9.678,1.588,9.94,1.517,10.279
			c-0.099-0.005-0.195-0.01-0.293-0.015c-1.034,0.046-1.598,0.573-1.729,1.54c-0.201,0.051-0.364,0.14-0.509,0.249
			c0.028,0.939,0.043,1.879,0.034,2.82c-0.057,5.737-1.402,11.558-1.112,17.273c0.087,1.727,0.132,3.448,0.15,5.169
			c0.688,0.67,1.36,1.356,2.064,2.011c1.409,1.727,3.154,2.895,5.236,3.502c0.234,0.003,0.469,0.004,0.703,0.007
			c0.048,0.038,0.094,0.079,0.142,0.116c0.048,0.047,0.094,0.095,0.143,0.141c1.854,2.209,4.084,3.869,6.69,4.983
			c25.747,0.173,51.48,0.251,77.228,0.069c25.836-0.183,51.671-0.592,77.504-0.976c2.337-0.034,4.673-0.069,7.01-0.104
			c8.581-0.123,17.161-0.25,25.741-0.381c40.653-0.596,81.308-1.146,121.967-1.332c0.458-0.002,0.806-0.064,1.075-0.168
			c2.354-0.014,4.709-0.033,7.063-0.043c1.557-0.008,1.958-0.621,1.705-1.522c0.6-0.005,1.198-0.009,1.797-0.013
			c1.638,0.237,2.149-0.412,1.538-1.949c-0.566-0.879-1.2-1.699-1.862-2.491c0.335-0.001,0.67-0.004,1.006-0.006
			c2.5-0.013,2.027-1.606,0.646-3.448c0.527-0.003,1.056-0.009,1.583-0.012c3.115-0.016,1.618-2.512-0.479-4.854
			c0.08-0.325-0.001-0.728-0.197-1.178c0.431-0.002,0.861-0.007,1.292-0.009C340.632,29.644,339.325,27.312,337.457,25.141z"/>
	</g>
	<g>
		<path fill="#FEFFFA" d="M916.527,6.876c-0.52-1.035-1.148-1.982-1.845-2.879c0.043-0.254,0.033-0.555-0.04-0.908
			c-0.989-2.174-2.456-3.986-4.363-5.468c-0.263-0.503-0.568-0.977-0.912-1.423c-9.371,0.592-18.721,1.281-28.126,1.068
			c-11.594-0.263-23.154,1.053-34.73,0.491c-11.811-0.574-23.62-0.829-35.445-0.719c-24.378,0.226-48.738,1.5-73.119,1.513
			c-12.404,0.006-24.758-0.205-37.161,0.065c-10.45,0.228-20.856-0.656-31.292-0.891c-16.887,3.35-34.23,1.086-51.332,0.442
			c-10.208-0.384-20.37-1.894-30.588-1.983c-4.911-0.043-9.811-0.133-14.706-0.319c-0.711,1.568-2.113,2.86-4.206,3.136
			c-9.222,1.215-18.491,0.119-27.75,0.424c-9.393,0.31-18.754,0.826-28.154,0.5c-19-0.659-38.041-0.061-56.998-1.738
			c-0.522,0.244-1.108,0.414-1.765,0.48c-21.652,2.179-43.318-1.056-65-0.333c-19.035,0.635-37.957-1.116-56.9-2.643
			c-0.245,0.061-0.498,0.113-0.766,0.143c-6.296,0.693-12.514,0.208-18.821,0.313c-6.063,0.102-12.116,0.627-18.179,0.687
			c-0.93,0.009-1.858-0.003-2.787-0.008c-0.092,0.201-0.158,0.433-0.191,0.701c0.008,0.067,0.029,0.128,0.04,0.195
			c-0.88,0.084-1.36,0.626-1.435,1.629c0.043,0.259,0.124,0.5,0.188,0.749c-0.28,0.276-0.428,0.701-0.436,1.287
			c0.491,2.174,1.565,4.051,3.222,5.63c2.549,3.19,5.239,6.258,8.068,9.203c1.352,1.848,3.071,3.157,5.161,3.928
			c0.355,0.024,0.71,0.05,1.065,0.074c0.204,0.173,0.415,0.338,0.627,0.5c1.656,2.006,3.622,3.614,5.934,4.775
			c50.188,3.298,100.34,6.775,150.593,8.987c25.217,1.111,50.448,1.479,75.687,1.615c9.936,0.055,19.864-0.104,29.787-0.367
			c24.044-0.471,48.057-1.758,72.092-2.723c23.497-0.941,46.975-2.48,70.444-3.914c24.333-1.486,48.683-2.36,73.043-3.297
			c17.819-0.684,35.645-1.251,53.472-1.751c4.139-0.112,8.275-0.225,12.414-0.331c0.11-0.005,0.221-0.008,0.331-0.013
			c2.62-0.069,5.239-0.142,7.859-0.208c1.144-0.057,2.289-0.09,3.433-0.135c4.766-0.061,9.532-0.022,14.298,0.139
			c7.558,0.162,15.049,0.453,22.588,1.017c0.91,0.1,1.46-0.112,1.655-0.634c2.145,0.124,4.289,0.26,6.438,0.422
			c1.766,0.133,2.078-0.583,1.637-1.666c0.617,0.042,1.234,0.075,1.852,0.121c3.122,0.231,1.703-2.141-0.457-4.536
			c0.379,0.026,0.758,0.044,1.136,0.071c2.657,0.19,2.023-1.566,0.493-3.582c0.573,0.037,1.146,0.065,1.72,0.105
			c3.196,0.223,1.629-2.395-0.501-4.857c0.056-0.285,0.037-0.633-0.077-1.064c-0.04-0.078-0.09-0.147-0.131-0.224
			c0.439,0.028,0.879,0.048,1.319,0.078C916.345,8.905,916.886,8.278,916.527,6.876z"/>
	</g>
	<g>
		<path fill="#FEFFFA" d="M129.835,11.144c0.402-1.774-3.385-5.49-4.438-6.488c-0.706-1.345-1.705-2.496-3.005-3.445
			c-0.75-0.728-1.526-1.424-2.297-2.127c-5.949-0.176-11.893-0.405-17.831-0.62c-0.195,0.022-0.396,0.035-0.604,0.037
			C83.638-1.34,65.667-0.707,47.63-1.52c-4.863-0.22-9.769-0.673-14.636-0.376c-3.966,0.242-8.177,0.947-12.144,0.489
			C13.076-2.307,5.918-2.61-1.805-2.003C-1.63,3.617-0.924,9.23-0.979,14.874c-0.021,2.18-0.229,4.372-0.462,6.566
			c0.304,0.331,0.592,0.675,0.899,1.002c1.337,1.873,3.05,3.211,5.144,4.017l1.11,0.069c0.228,0.197,0.466,0.377,0.703,0.56
			c1.62,1.974,3.539,3.571,5.796,4.742c5.61,0.329,11.219,0.66,16.828,0.991c11.406,0.576,22.821,0.794,34.241,0.662
			c5.558,0.021,11.117-0.076,16.675-0.238c14.367-0.215,28.737-1.029,43.075-1.761c1.442,0.259,2.016-0.23,1.736-1.456
			c0.575-0.029,1.151-0.059,1.728-0.088c1.63,0.281,2.161-0.354,1.592-1.907c-0.543-0.895-1.151-1.732-1.793-2.542
			c0.292-0.015,0.585-0.029,0.877-0.043c1.574,0.285,2.122-0.335,1.646-1.861c-0.295-0.538-0.628-1.045-0.961-1.553
			c0.507-0.024,1.015-0.049,1.521-0.074c1.55,0.277,2.104-0.341,1.658-1.851c-0.604-1.138-1.319-2.188-2.099-3.189
			c0.053-0.282,0.008-0.61-0.117-0.971c0.396-0.019,0.792-0.038,1.188-0.056C132.991,15.751,131.664,13.328,129.835,11.144z"/>
	</g>
	<g>
		<path fill="#FEFFFA" d="M1921.555,27.764c-0.097-0.257-0.177-0.515-0.214-0.768c-0.202-1.389-0.294-2.476,0.016-3.867
			c0.039-0.179,0.087-0.36,0.133-0.542c-0.285-1.003-0.203-2.035,0.151-2.965c-0.126-1.622-0.25-3.247-0.376-4.864l-9.207,0.451
			c-7.257,0.555-14.493,1.307-21.71,2.252c-10.942,1.286-21.83,3.035-32.765,4.408c-6.562,0.361-13.123,0.724-19.686,1.085
			c-13.112,0.773-26.223,1.617-39.326,2.53c-26.169,1.754-52.316,3.844-78.47,5.823c-17.836,1.351-35.704,2.343-53.568,3.255
			c-9.894,0.592-19.793,1.074-29.696,1.444c-10.16,0.257-20.323,0.446-30.485,0.57c-2.253-0.108-4.507-0.218-6.761-0.324
			c-4.469-0.04-8.939-0.071-13.408-0.096c-4.188-0.08-8.357-0.398-12.51-0.956c-7.586-0.723-15.188-1.239-22.801-1.549
			c-11.84-0.641-23.695-1.063-35.54-1.639c-4.114-0.749-8.201-1.634-12.258-2.659c-4.031-0.941-8.066-1.873-12.104-2.794
			c-6.44-0.634-12.882-1.27-19.323-1.903c-12.809-1.249-25.616-2.481-38.429-3.697c-25.498-2.438-51.003-4.817-76.502-7.237
			c-19.232-1.827-38.459-3.725-57.683-5.645c-25.274-2.523-50.546-4.579-75.888-6.296c-18.762-1.272-37.548-1.942-56.338-2.569
			c-10.475-0.349-20.95-0.471-31.426-0.452c-2.956,0.044-5.912,0.057-8.868,0.047c-11.639,0.108-23.276,0.369-34.911,0.701
			c-18.933,0.541-37.803,2.137-56.662,3.771c-3.414,0.296-6.824,0.63-10.232,0.989c-16.847,1.739-33.635,4.195-50.412,6.579
			c-5.408,0.76-10.814,1.514-16.223,2.228c-44.971,5.943-90.13,10.267-135.35,13.741c-45.394,3.489-90.947,4.912-136.444,6.22
			c-45.614,1.313-91.257,1.547-136.886,1.48c-91.371-0.129-182.729-2.975-274.029-6.337c-45.736-1.683-91.461-3.639-137.187-5.586
			c-19.616-0.836-39.231-1.682-58.849-2.487c-12.118,0.123-24.234,0.263-36.351,0.42c-11.456-0.166-22.898-0.652-34.326-1.457
			c-0.794-0.035-1.321,0.214-1.593,0.734c-0.008,0.007-0.017,0.012-0.022,0.018c-0.874,0.073-1.408,0.509-1.626,1.282
			c-0.175-0.011-0.35-0.019-0.525-0.03C4.72,21.091,4.582,21.14,4.437,21.18c-1.043-0.027-1.614,0.45-1.718,1.425
			c-0.385,0.166-0.58,0.451-0.634,0.819c-0.134-0.01-0.269-0.017-0.402-0.027c-1.016,0.023-1.586,0.521-1.755,1.45
			c-0.515,0.133-0.838,0.47-0.979,1.001c-0.356,0.057-0.645,0.186-0.873,0.38c-0.167,1.98-0.267,3.956-0.167,5.918
			c0.306,6.021,0.128,11.999-0.129,17.977c0.788,0.812,1.561,1.638,2.37,2.43c1.383,1.784,3.117,3.018,5.205,3.701
			c0.283,0.006,0.564,0.008,0.849,0.012c0.174,0.146,0.339,0.303,0.52,0.438c1.752,2.089,3.84,3.716,6.288,4.846
			c14.627,0.216,29.216,0.175,43.826-0.038c3.452-0.045,6.903-0.102,10.355-0.173c0.212-0.005,0.425-0.007,0.637-0.011
			c6.078-0.076,12.155-0.152,18.233-0.227c13.006,0.616,26.013,1.219,39.019,1.805c32.21,1.473,64.424,2.86,96.64,4.186
			c1.041-0.045,2.081-0.085,3.123-0.107c19.098-0.418,38.215-0.591,57.317-0.884c18.859-0.289,37.776,0.023,56.625,0.742
			c18.139,0.692,36.233,2.51,54.376,0.824c0.257-0.023,0.502-0.03,0.738-0.021c0.79-1.124,2.098-1.881,3.928-1.813
			c6.412,0.239,12.769,2.938,19.167,2.5c6.625-0.453,13.097-0.904,19.738-0.465c6.744,0.445,13.1-0.48,19.8-0.654
			c6.912-0.18,13.847,0.603,20.711,1.328c6.921,0.731,13.876,1.572,20.843,1.708c7.042,0.137,14.03-0.518,21.059-0.792
			c6.791-0.265,13.573,0.505,20.348,0.209c6.985-0.306,13.836-1.741,20.833-0.834c0.11,0.015,0.214,0.038,0.32,0.058
			c24.422-2.593,48.896-3.216,73.513-3.224c1.59-0.001,2.781,0.607,3.582,1.522c6.973-0.045,13.956,1.14,20.918,1.437
			c1.02,0.043,2.04,0.068,3.059,0.103c4.146,0.089,8.293,0.143,12.441,0.104c0.47-0.005,0.901,0.05,1.302,0.145
			c2.455,0.014,4.91,0.021,7.366,0.022c17.768,0.01,35.538,0.237,53.295,0.869c16.598,0.59,33.146,0.478,49.744,0.271
			c11.217-0.593,22.431-1.221,33.64-1.929c45.684-2.885,91.219-7.864,136.64-13.45c19.674-2.418,39.293-5.264,58.91-8.097
			c24.998-3.608,50.101-5.539,75.301-6.989c3.109-0.179,6.22-0.316,9.332-0.438c12.664-0.332,25.34-0.324,38-0.334
			c24.626-0.02,49.248,1.308,73.825,2.687c43.94,2.464,87.65,7.548,131.418,11.993c39.437,4.006,78.905,7.674,118.362,11.484
			c4.157,0.06,8.314,0.317,12.461,0.702c7.755,0.72,15.707,0.862,23.394,2.109c0.449,0.073,0.9,0.159,1.353,0.249
			c0.762-0.593,1.758-0.961,2.991-0.962c12.944-0.008,25.889-0.159,38.833-0.167c0.021,0,0.04,0.003,0.061,0.003
			c0.99-0.031,1.982-0.052,2.976-0.052c0.805-0.956,2.004-1.61,3.63-1.618c9.436-0.049,18.832,0.829,28.261,0.991
			c8.907,0.152,17.745-0.895,26.65-0.699c9.623,0.21,19.264-0.084,28.879,0.258c9.023,0.32,18.023,1.169,27.047,1.458
			c18.695,0.599,37.441-0.176,56.142-0.258c17.992-0.079,36.092,1.377,54.021-0.583c1.318-0.145,2.357,0.17,3.129,0.758
			c10.212-0.771,20.479-1.111,30.729-0.951c17.58-1.293,35.167-2.509,52.767-3.589c6.553-0.352,13.105-0.704,19.659-1.058
			c7.386-0.823,14.752-1.797,22.101-2.916c7.254-1.092,14.526-2.043,21.816-2.857c0.879-0.098,1.757-0.177,2.636-0.26
			c0.016-2.231,0.12-4.409,0.327-6.423C1921.889,42.059,1921.074,34.898,1921.555,27.764z"/>
	</g>
	<g>
		<path fill="#FEFFFA" d="M1921.56,27.775c-0.099-0.261-0.182-0.522-0.219-0.78c-0.202-1.389-0.294-2.476,0.016-3.867
			c0.039-0.179,0.087-0.36,0.133-0.542c-0.287-1.013-0.201-2.055,0.162-2.992c-0.486-6.01-1.013-11.987-0.958-17.99
			c-10.034,0.653-20.079,1.03-30.138,1.097c-17.893,0.408-35.865-0.505-53.753-0.831c-32.56-0.592-65.11-1.634-97.658-2.635
			c-55.005-1.689-109.995-3.417-165.017-4.183c-0.232,2.292-1.831,4.428-4.803,4.447c-23.774,0.154-47.538-1.06-71.31-1.327
			c-22.926-0.258-45.856-0.267-68.78,0.151c-11.182,0.204-22.414,0.917-33.596,0.71c-5.586-0.104-11.132-0.728-16.703-1.087
			c-5.703-0.368-11.352-0.107-17.055-0.215c-0.704-0.013-1.408-0.043-2.111-0.065c-11.328,1.765-23.376,2.291-34.756,1.754
			c-6.799-0.32-13.578-0.778-20.354-1.421c-1.938-0.184-3.888-0.278-5.83-0.421c-0.828,0.397-1.742,0.609-2.7,0.714
			c-0.484,0.053-0.961,0.02-1.433-0.059c-0.327,0.061-0.668,0.102-1.037,0.1c-6.35-0.031-12.454-1.771-18.762-2.075
			c-1.843-0.089-3.686-0.156-5.529-0.215c-20.841,0.001-41.682,0.011-62.522,0.059c-19.365,0.532-38.7,1.188-58.063,2.218
			c-23.637,1.257-47.255-0.299-70.909-0.25c-4.113,0.008-8.274-0.154-12.446-0.306c-8.435,0.208-16.868,0.432-25.302,0.676
			c-10.121,1.063-20.28,1.231-30.466,1.06c-0.284-0.005-0.551-0.035-0.81-0.077c-14.786,0.5-29.571,1.042-44.356,1.632
			C899.281,3.659,834.098,6.958,768.877,9.4c-31.678,1.187-63.375,1.967-95.063,2.763c-30.353,0.763-60.709,0.544-91.062-0.078
			c-12.104-0.293-24.197-0.79-36.285-1.49c-6.146-0.354-12.292-0.709-18.439-1.063c-3.183-0.829-6.419-1.328-9.708-1.494
			c-6.879-1.207-13.824-1.831-20.833-1.873c-15.355-1.059-30.609-3.556-45.877-5.429c-0.667-0.044-1.15,0.121-1.46,0.482
			c-0.118,0.091-0.207,0.201-0.268,0.331c-0.896,0.05-1.45,0.49-1.688,1.289c-0.269-0.033-0.537-0.069-0.805-0.102
			c-1.049-0.077-1.654,0.35-1.821,1.274c-0.445,0.197-0.62,0.585-0.6,1.094c-0.147-0.017-0.295-0.037-0.442-0.054
			c-0.944-0.007-1.514,0.412-1.752,1.208c-0.577,0.111-0.94,0.465-1.094,1.058c-0.805,0.081-1.309,0.502-1.517,1.262
			c-0.146,0.146-0.254,0.337-0.321,0.573c-0.881-0.031-1.438,0.307-1.687,0.996c-0.645,0.12-1.089,0.469-1.324,1.057
			c-0.698,0.172-1.103,0.681-1.196,1.544c-0.64,0.083-1.029,0.451-1.166,1.107c-1.02,0.036-1.608,0.565-1.741,1.616
			c0.008,0.067,0.03,0.127,0.039,0.193c-0.876,0.084-1.355,0.624-1.431,1.625c0.043,0.259,0.123,0.501,0.187,0.751
			c-0.276,0.275-0.423,0.698-0.432,1.28c0.486,2.177,1.559,4.058,3.211,5.645c2.545,3.203,5.23,6.281,8.058,9.237
			c1.347,1.854,3.066,3.172,5.157,3.95c0.365,0.027,0.729,0.063,1.093,0.09c0.203,0.174,0.415,0.335,0.626,0.496
			c1.648,1.998,3.604,3.605,5.901,4.769c10.503,0.765,20.979,1.8,31.429,3.104c5.243,0.518,10.484,1.033,15.728,1.552
			c6.987-0.28,13.845,0.396,20.57,2.021c3.278,0.242,6.516,0.739,9.714,1.489c6.155,0.304,12.31,0.608,18.464,0.911
			c12.293,0.55,24.595,0.941,36.899,1.178c30.755,0.783,61.541,0.221,92.291-0.496c0.33-0.01,0.66-0.021,0.99-0.031
			c2.36-0.053,4.723-0.104,7.083-0.159c12.31-0.341,24.615-0.763,36.921-1.271c19.725-0.744,39.46-1.271,59.188-2.014
			c65.456-2.46,130.871-5.932,196.315-8.682c23.725-0.998,47.454-1.813,71.188-2.504c6.18-0.172,12.358-0.344,18.539-0.502
			c32.197-0.816,64.409-1.006,96.614-1.205c63.694-0.392,127.392-0.031,191.087-0.063c31.926-0.018,63.849-0.208,95.77-0.518
			c32.358-0.313,64.699-0.92,97.063-0.836c64.9,0.172,129.797,2.797,194.654,4.893c32.541,1.053,65.085,1.939,97.635,2.626
			c12.23,0.101,24.455,0.401,36.674,0.901c7.402,0.248,14.799,0.176,22.19-0.066c6.446-0.08,12.888-0.345,19.328-0.686
			C1921.53,38.022,1921.217,32.893,1921.56,27.775z"/>
	</g>
	<path fill="none" stroke="#FEFFFA" stroke-miterlimit="10" d="M-1.5,0.5v3.322C-1.24,7.5-0.943,11.18-0.979,14.874
		c-0.023,2.36-0.265,4.735-0.521,7.111V65.5h1451.253c6.926-0.646,13.878-0.529,20.81,0h75.115c0.404-0.103,0.84-0.164,1.314-0.167
		c2.834-0.015,5.663,0.059,8.492,0.167H1918.5v-65H-1.5z"/>
	<g>
		<path fill="#FEFFFA" d="M303.67-1.135c-0.065-0.788-0.157-1.573-0.236-2.36c-3.035,0.152-6.069,0.299-9.106,0.329
			c-12.619,0.124-25.097-1.179-37.726-0.388c-12.743,0.799-25.502-0.063-38.234,0.788c-7.527,0.502-16.427,3.544-24.111,2.072
			c-0.339,0.171-0.704,0.296-1.099,0.35c-5.199,0.699-10.081,0.078-15.158-1.167c-0.309-0.076-0.589-0.176-0.855-0.289
			c-2.795,0.04-5.587,0.068-8.358,0.128c-8.172,0.178-16.325,0.728-24.495,0.927c-13.372,0.326-26.815-0.238-40.21-0.731
			c2.417,2.136,4.882,4.215,7.44,6.183c1.657,1.665,3.604,2.743,5.841,3.234c12.277-0.05,24.551-0.196,36.826-0.441l18.398-0.315
			c7.522-0.695,15.021-0.684,22.497,0.033c3.392-0.191,6.778-0.429,10.162-0.714c2.018-0.281,4.033-0.561,6.048-0.84
			c4.055-0.703,8.137-1.139,12.247-1.311c4.032-0.303,8.067-0.561,12.104-0.77c3.467-0.2,6.92-0.159,10.376-0.046
			c4.052,0.243,8.103,0.601,12.148,0.797c1.714,0.177,3.428,0.354,5.142,0.53c2.702,0.362,5.335,1.006,7.895,1.952
			c2.408,0.786,4.58,1.996,6.516,3.629c0.723,0.503,1.277,0.595,1.706,0.419c0.78,0.01,1.228-0.725,1.473-1.744
			c0.52,0.351,1.036,0.707,1.546,1.075c1.121,0.809,1.841,0.611,2.3-0.074c0.862,0.55,1.645,0.462,2.341-0.254
			c0.426,0.236,0.784,0.306,1.085,0.244c0.436,0.143,0.853,0.135,1.249-0.021c0.458-0.015,0.889-0.252,1.287-0.728
			c0.004-0.009,0.007-0.018,0.012-0.027c0.077-0.064,0.149-0.14,0.217-0.227c0.078,0.061,0.154,0.119,0.232,0.18
			c0.55,0.282,1.07,0.324,1.566,0.178c0.58,0.171,1.119,0.021,1.618-0.44c0.722,0.403,1.375,0.275,1.964-0.366
			c0.873,0.543,1.661,0.423,2.365-0.371c0.005-0.009,0.009-0.019,0.014-0.028c0.287,0.144,0.539,0.197,0.762,0.181
			c0.72,0.332,1.374,0.132,1.956-0.618c0.161-0.358,0.29-0.72,0.402-1.085C304.492,7.41,303.691-0.861,303.67-1.135z"/>
	</g>
	<g>
		<path fill="#FEFFFA" d="M330.873,8.749c0.256-2.07-4.314-6.679-4.387-6.754c-0.057-0.059-0.116-0.115-0.173-0.173
			c-0.618-1.133-1.439-2.145-2.516-3.003c-0.843-0.894-1.722-1.75-2.593-2.617c-2.892-0.029-5.785-0.104-8.698-0.056
			c-6.063,0.102-12.116,0.627-18.179,0.687c-12.619,0.124-25.097-1.179-37.726-0.388c-12.743,0.799-25.502-0.063-38.234,0.788
			c-7.527,0.502-16.427,3.544-24.111,2.072c-0.339,0.171-0.704,0.296-1.099,0.35c-5.199,0.699-10.081,0.078-15.158-1.167
			c-0.309-0.076-0.589-0.176-0.855-0.289c-2.795,0.04-5.587,0.068-8.358,0.128c-8.172,0.178-16.325,0.728-24.495,0.927
			c-12.306,0.3-24.673-0.154-37.007-0.614c-0.021,0.044-0.048,0.08-0.067,0.127c-0.618,0.133-0.873,0.639-0.896,1.338
			c-0.193-0.058-0.387-0.118-0.58-0.175c-1.116-0.283-1.834,0.128-2.156,1.233c-0.001,0.033,0.001,0.064,0,0.097
			c-0.567,0.106-0.945,0.545-1.126,1.333c0.005,0.417,0.041,0.827,0.091,1.231c-0.421,2.118,2.234,7.008,2.34,7.214
			c2.095,4.042,4.352,7.991,6.77,11.848c1.06,2.284,2.606,4.121,4.637,5.513c0.763,0.164,1.528,0.3,2.293,0.443
			c0.476,0.508,0.98,0.988,1.52,1.439c1.003,1.354,2.147,2.59,3.468,3.678c2.88,0.719,5.792,1.215,8.738,1.494
			c2.06,0.14,4.119,0.279,6.179,0.42c3.04,0.172,6.079,0.104,9.118-0.189c0.031,0.002,0.062,0.004,0.093,0.006
			c5.635,0.014,11.243-0.362,16.827-1.129c8.781-0.89,17.52-2.944,26.152-4.712c8.02-1.642,16.006-3.348,24.05-4.868
			c5.358-0.98,10.748-1.752,16.167-2.32c0.932-0.115,1.864-0.201,2.796-0.278c5.002,0.025,10.007,0.341,15.013,0.601
			c3.66,0.385,7.321,0.769,10.98,1.153c7.351,0.959,14.701,1.934,22.047,2.924c3.737,0.431,7.475,0.86,11.211,1.29
			c7.661,0.801,15.344,1.179,23.048,1.134c0.602,0.013,1.025-0.081,1.318-0.25c2.222,0.059,4.443,0.093,6.669,0.082
			c1.502,0.328,2.077-0.206,1.746-1.578c0.563,0.002,1.125,0.018,1.688,0.016c1.617,0.344,2.172-0.27,1.665-1.842
			c-0.525-0.95-1.127-1.841-1.763-2.704c0.263,0,0.524,0.009,0.788,0.008c1.557,0.347,2.13-0.249,1.72-1.791
			c-0.299-0.602-0.635-1.177-0.979-1.745c0.48,0.002,0.962,0.017,1.442,0.016c1.531,0.333,2.108-0.261,1.731-1.781
			c-0.577-1.206-1.273-2.326-2.046-3.39c0.013-0.282-0.056-0.606-0.186-0.958c0.383,0.001,0.766,0.014,1.148,0.014
			C333.995,13.652,332.658,11.06,330.873,8.749z"/>
	</g>
</g>
<g id="Calque_2">
	<g>
		<path fill="#B7BEC4" d="M27.493,48.838c13.602,8.184,28.938,12.997,44.757,14.205c1.932,0.146,1.917-2.854,0-3
			c-15.29-1.167-30.104-5.889-43.243-13.795C27.346,45.248,25.838,47.842,27.493,48.838L27.493,48.838z"/>
	</g>
	<g>
		<path fill="#B7BEC4" d="M64.25,40.543c-16.129-2.005-31.738-6.764-47.671-9.821c-6.3-1.209-8.987,8.428-2.658,9.643
			c16.834,3.23,33.282,8.059,50.329,10.178C70.64,51.337,70.563,41.328,64.25,40.543L64.25,40.543z"/>
	</g>
	<g>
		<path fill="#B7BEC4" d="M12.921,46.363c27.721,5.857,55.97,8.171,84,12c6.304,0.861,9.023-8.772,2.658-9.643
			c-28.026-3.83-56.286-6.144-84-12C9.289,35.393,6.614,45.031,12.921,46.363L12.921,46.363z"/>
	</g>
	<g>
		<path fill="#B7BEC4" d="M46.058,69.439c6.483-0.011,12.976-0.163,19.433-0.396c1.399-2.619,0.798-6.222-2.913-6.934
			c-18.643-3.573-44.562-3.186-57.01-20.09c-2.242-3.045-6.21-2.531-8.268-0.523c-0.022,1.957-0.064,3.914-0.134,5.869
			C8.935,63.066,27.7,66.53,46.058,69.439z"/>
	</g>
	<g>
		<path fill="#B7BEC4" d="M120.25,42.543c-21.715,0.027-43.492,0.678-65.1-1.941c-18.829-2.281-38.136-8.076-51.8-21.834
			c-1.615-1.626-3.545-1.779-5.163-1.102c-0.182,3.047-0.609,6.111-0.866,9.164C28.72,57.223,80.165,52.595,120.25,52.543
			C126.698,52.535,126.699,42.535,120.25,42.543z"/>
	</g>
	<g>
		<path fill="#B7BEC4" d="M57.009,53.643c17.378,6.207,35.387,10.386,53.123,15.456c5.155-0.543,10.263-1.166,15.38-1.481
			c0.267-2.205-0.718-4.566-3.436-5.411c-19.653-6.108-39.847-10.442-59.316-17.127c-16.907-5.806-33.405-12.962-45.973-26.072
			c-4.47-4.662-11.532,2.418-7.072,7.072C22.723,39.648,39.56,47.409,57.009,53.643z"/>
	</g>
	<g>
		<path fill="#B7BEC4" d="M4.25,67.043c0.458,0.006,0.917,0.007,1.375,0.01c0.723,0.347,1.458,0.658,2.198,0.952
			c7.987,0.233,15.932,0.921,23.992,1.206c5.007,0.178,10.042,0.24,15.083,0.223c0.801-0.906,1.202-2.092,1.179-3.301
			c9.978,0.721,19.953,1.814,29.91,2.764c6.468,0.21,12.943,0.766,19.402,0.849c1.243-0.704,2.091-2.003,2.411-3.418
			c0.109-0.396,0.17-0.8,0.185-1.204c0.996,0.174,1.991,0.345,2.987,0.513c3.015,1.644,7.943,1.417,10.779,1.657
			c2.144,0.182,3.769-1.25,4.52-3.068c0.966-1.487,1.127-3.295-0.308-4.844c-0.397-0.579-0.943-1.075-1.689-1.404
			c-0.33-0.146-0.663-0.28-0.994-0.424c-0.622-0.309-1.307-0.603-2.042-0.871c-4.882-2.063-9.83-3.94-14.817-5.712
			c1.178,0.16,2.369,0.276,3.578,0.323c4.758,0.188,7.13-7.241,2.523-9.316c-0.136-0.062-0.273-0.115-0.409-0.176
			c2.123,0.44,3.755-0.57,4.648-2.109c0.887,0.139,1.773,0.279,2.658,0.424c6.296,1.031,9.019-8.563,2.658-9.642c0,0,0,0,0-0.001
			c-0.012-0.002-0.024-0.004-0.036-0.006c-6.719-1.144-13.201-3.326-19.964-4.243c-1.043-0.142-2.031,0-2.911,0.33
			c-1.97-0.414-3.934-0.853-5.888-1.35c-9.068-2.306-17.417-4.828-26.859-3.481c-0.333,0.047-0.654,0.153-0.96,0.3
			c-1.934-1.021-3.977-1.993-6.064-1.4c-4.657-1.089-9.341-1.514-14.476,0.102c-3.182,1-4.51,4.417-2.987,7.345
			c2.684,5.161,6.147,10.01,10.946,13.411c5.068,3.59,11.31,5.714,17.287,7.751c-8.782-0.889-17.609-0.979-26.392-0.101
			c-3.152,0.315-6.763,1.041-10.374,1.417c-1.34-0.387-2.676-0.788-4.006-1.211c-2.853-0.907-5.309-1.005-8-1.022
			c-1-0.104-1.995-0.109-2.895-0.021c-0.002,0-0.004,0.001-0.006,0.001c-2.119-0.177-3.612,1.007-4.349,2.611
			c-0.002,0.006-0.005,0.012-0.008,0.017c-0.109,0.239-0.2,0.485-0.274,0.739c-0.006,0.021-0.014,0.041-0.02,0.062
			c-0.038,0.135-0.069,0.269-0.097,0.406c-0.39,1.165-0.351,2.423,0.236,3.527c-0.928-0.695-1.828-1.46-2.689-2.317
			c-2.042-2.036-4.582-1.747-6.361-0.401c-0.119,2.606-0.239,5.213-0.339,7.823c0.985,0.954,1.999,1.828,3.039,2.624
			C0.278,65.342,1.906,67.014,4.25,67.043z M86.097,35.7c1.954,0.464,3.92,0.873,5.893,1.251c0.655,0.445,1.331,0.847,2.029,1.205
			c-3.769-1.103-7.588-1.991-11.435-2.799c-0.784-0.338-1.568-0.673-2.354-0.996c-0.839-0.346-1.816-0.689-2.86-1.052
			C80.312,34.127,83.227,35.02,86.097,35.7z"/>
	</g>
	<g>
		<path fill="#B7BEC4" d="M4.241,47.578c-1.616-3.069-4.856-3.024-7.042-1.442c-0.196,6.201-0.571,12.392-0.726,18.611
			c0.596,0.555,1.304,0.975,2.052,1.181c2.819,0.775,5.181-0.947,6.151-3.492C6.519,57.607,6.686,52.218,4.241,47.578z"/>
	</g>
	<g>
		<path fill="#B7BEC4" d="M29.304,42.633c-2.335-4.367-7.665-6.422-12.054-7.979c-3.521-1.248-9.051-2.489-13.475-1.81
			c-0.158-0.14-0.319-0.271-0.477-0.415c-1.99-1.812-4.385-1.628-6.153-0.487c0.007,0.249,0,0.499,0.013,0.747
			c0.185,3.634,0.186,7.251,0.108,10.863c1.137,3.309,4.236,5.485,7.056,7.521c0.137,0.099,0.258,0.21,0.388,0.314
			c-1.989,0.437-4.165,0.354-6.152,0.737c-0.626,0.121-1.161,0.327-1.615,0.594c-0.116,2.555-0.234,5.111-0.334,7.67
			c1.096,1.106,2.682,1.751,4.607,1.38c6.038-1.166,12.382-0.885,14.35-8.088c0.035-0.127,0.046-0.245,0.074-0.369
			c3.841,2.431,8.11,4.347,12.458,1.92C32.746,52.641,31.292,46.355,29.304,42.633z"/>
	</g>
	<g>
		<path fill="#B7BEC4" d="M3.533,25.17c-1.915-1.851-4.245-1.729-5.996-0.636c-0.285,2.729-0.516,5.454-0.378,8.155
			c0.004,0.087,0.004,0.174,0.008,0.261c0.011,0.011,0.017,0.016,0.026,0.025c0.022,0.031,0.041,0.059,0.068,0.097
			c0.153,0.217,0.288,0.444,0.418,0.675c-0.169,0.093-0.321,0.207-0.478,0.315c0.108,2.769,0.139,5.531,0.096,8.287
			c1.167,0.768,2.621,1.077,3.998,0.617c3.942-1.316,6.912-4.369,6.729-8.76C7.879,30.765,5.961,27.517,3.533,25.17z M-1.982,34.551
			C-2.02,34.892-2.111,35.139-1.982,34.551L-1.982,34.551z"/>
	</g>
	<g>
		<path fill="#B7BEC4" d="M62.275,35.725c-5.375-4.14-11.789-5.853-18.367-6.643c-0.788-0.37-1.576-0.739-2.368-1.102
			c2.236-2.201,2.569-6.536-0.766-8.004c-6.911-3.043-13.965-4.4-21.523-3.933c-0.307,0.019-0.597,0.066-0.88,0.125
			c-5.746-1.309-11.469-2.766-17.254-3.861c-1.076-0.204-2.042-0.086-2.881,0.245c0.029,0.954,0.045,1.909,0.036,2.864
			c-0.021,2.117-0.218,4.245-0.443,6.375c0.2,0.062,0.408,0.117,0.63,0.159c6.001,1.136,11.93,2.605,17.879,3.938
			c0.652,0.88,1.395,1.662,2.201,2.373C12.305,28.3,6.07,28.38-0.161,28.238c-1.062-0.024-1.944,0.23-2.656,0.666
			c-0.063,1.266-0.088,2.528-0.024,3.786c0.082,1.617,0.129,3.231,0.149,4.844c0.689,0.422,1.532,0.683,2.53,0.705
			c10.906,0.248,21.813-0.108,32.72,0.13c2.926,0.063,5.885,0.149,8.797,0.44c5.481,2.578,10.934,5.164,17.065,6.055
			C64.17,45.699,66.859,39.256,62.275,35.725z"/>
	</g>
	<g>
		<path fill="#B7BEC4" d="M91,42.543c19.063,0.02,36.954,8.016,55.75,10.25c6.396,0.76,6.322-9.248,0-10
			c-18.859-2.242-36.542-10.231-55.75-10.25C84.552,32.537,84.553,42.537,91,42.543L91,42.543z"/>
	</g>
	<g>
		<path fill="#B7BEC4" d="M78.25,39.543c21.604,2.313,42.403,8.896,63.421,14.07c6.263,1.543,8.917-8.102,2.658-9.643
			c-21.932-5.4-43.537-12.016-66.079-14.428C71.841,28.857,71.907,38.863,78.25,39.543L78.25,39.543z"/>
	</g>
	<g>
		<path fill="#B7BEC4" d="M108.421,37.363c12.772,2.826,25.69,5.062,38.581,7.271c11.568,1.983,22.597,6.415,34.498,6.157
			c5.772-0.125,6.642-8.045,1.329-9.821c-8.94-2.99-18.474-2.882-27.5-5.5c0,3.215,0,6.43,0,9.643
			c3.336-0.654,6.601,0.156,9.921,0.498c6.413,0.662,6.35-9.344,0-10c-4.375-0.45-8.197-1.002-12.579-0.141
			c-5.046,0.992-4.506,8.336,0,9.643c9.025,2.619,18.56,2.511,27.5,5.5c0.443-3.272,0.887-6.547,1.329-9.82
			c-11.444,0.248-22.266-4.158-33.421-6.07c-12.364-2.121-24.75-4.291-37-7C104.795,26.331,102.125,35.973,108.421,37.363
			L108.421,37.363z"/>
	</g>
	<g>
		<path fill="#B7BEC4" d="M143.671,44.863c2.221,0.556,4.369,0.888,6.645,0.537c3.136-0.482,5.593-3.703,5.186-6.857
			c-0.349-2.702-2.01-5-5-5c-2.46,0-5.351,2.29-5,5c0.063,0.492-0.058,1.171,0.185-0.45c-0.138,0.481-0.034,0.243,0.311-0.718
			c0.322-0.568,0.764-1.025,1.321-1.366c1.068-0.665,1.105-0.405,0.53-0.28c1.655-0.357,0.863-0.107,0.315-0.121
			c-0.221-0.006-0.44-0.03-0.661-0.056c1.797,0.196,0.636,0.077,0.218-0.006c-0.467-0.093-0.928-0.209-1.389-0.323
			c-2.642-0.66-5.415,0.818-6.149,3.491C139.47,41.293,141.028,44.204,143.671,44.863L143.671,44.863z"/>
	</g>
	<g>
		<path fill="#B7BEC4" d="M98.228,54.359c8.431,5.529,18.431,6.639,27.981,9.106c6.043,1.563,12.129,2.879,18.241,4.069
			c1.328-0.088,2.656-0.168,3.985-0.228c6.744-0.3,13.284,0.034,19.726,0.861c1.515-2.646,0.958-6.355-2.84-7.005
			c-11.002-1.881-22.002-3.752-32.851-6.407c-9.674-2.366-20.732-3.481-29.196-9.032C97.864,42.178,92.86,50.841,98.228,54.359z"/>
	</g>
	<g>
		<path fill="#B7BEC4" d="M179.221,68.339c0.665-0.132,1.394-0.134,2.186,0.05c0.104,0.024,0.207,0.047,0.311,0.071
			c4.442,0.273,8.883,0.81,13.436,0.727c9.644-0.177,19.274-1.448,28.94-1.659c2.392-0.053,4.784-0.092,7.176-0.137
			c1.008-2.926-0.489-6.832-4.519-6.848c-20.277-0.08-40.55-0.593-60.836-0.645c-10.065-0.025-20.004-1.625-30.042-1.603
			c-10.267,0.022-20.597,0.397-30.793-1.075c-6.305-0.91-9.02,8.725-2.658,9.643c5.38,0.778,10.755,1.157,16.144,1.335
			c7.073-0.715,14.116-1.168,21.279-0.317c2.861-0.236,5.724-0.445,8.591-0.573c7.951-0.354,15.617,0.188,23.174,1.373
			C174.168,68.322,176.698,68.257,179.221,68.339z"/>
	</g>
	<g>
		<path fill="#B7BEC4" d="M109.25,55.043c28.024,0.126,55.727,5.374,83.75,5.5c6.45,0.029,6.447-9.971,0-10
			c-28.023-0.126-55.726-5.374-83.75-5.5C102.8,45.014,102.804,55.014,109.25,55.043L109.25,55.043z"/>
	</g>
	<g>
		<path fill="#B7BEC4" d="M129.921,59.613c16.822,3.125,33.891,4.107,50.913,5.516c16.525,1.367,32.887-0.586,49.416-0.586
			c6.449,0,6.449-10,0-10c-15.846,0-31.667,2.13-47.5,0.75c-16.763-1.461-33.597-2.243-50.171-5.32
			C126.278,48.801,123.586,58.438,129.921,59.613L129.921,59.613z"/>
	</g>
	<g>
		<path fill="#B7BEC4" d="M144,50.543c10.42-1.385,20.472,1.559,30.733,2.869c10.977,1.4,22.036,1.666,32.938,3.701
			c6.303,1.178,8.992-8.459,2.658-9.643c-11.231-2.098-22.609-2.652-33.953-3.851c-10.869-1.147-21.339-4.546-32.376-3.078
			C137.704,41.38,137.623,51.391,144,50.543L144,50.543z"/>
	</g>
	<g>
		<path fill="#B7BEC4" d="M170.75,46.293c17.322,1.839,34.587,7.286,51.435,11.579c14.545,3.706,29.107,6.333,43.779,8.989
			c5.15-0.068,10.299-0.139,15.447-0.218c0.264-0.004,0.528-0.002,0.792-0.006c1.77-2.641,1.335-6.681-2.624-7.417
			c-18.393-3.421-36.581-6.35-54.737-10.992c-17.765-4.543-35.817-9.996-54.092-11.937C164.34,35.611,164.406,45.619,170.75,46.293z
			"/>
	</g>
	<g>
		<path fill="#B7BEC4" d="M203.25,52.043c17.936,0.245,35.833,6.082,53.396,9.328c9.446,1.744,18.979,2.977,28.414,4.779
			c0.772,0.147,1.544,0.298,2.315,0.448c9.617-0.084,19.243-0.021,28.866,0.171c0.172-2.604-1.411-5.572-4.741-5.977
			c-8.603-1.043-17.06-2.998-25.563-4.625c-9.48-1.813-19.072-3.043-28.568-4.798c-17.856-3.3-35.86-9.077-54.119-9.327
			C196.798,41.955,196.808,51.955,203.25,52.043z"/>
	</g>
	<g>
		<path fill="#B7BEC4" d="M221.921,66.613c1.174,0.348,2.372,0.638,3.583,0.887c18.628-0.396,37.274-0.57,55.906-0.856
			c18.859-0.289,37.776,0.023,56.625,0.742c12.094,0.462,24.169,1.418,36.251,1.509c4.318-1.855,3.641-9.602-2.036-9.602
			c-25.333,0-50.668,0.26-76,0c-12.843-0.132-25.679-0.48-38.522-0.505c-5.873-0.013-11.737-0.207-17.608-0.319
			c-5.257-0.101-10.451,0.01-15.54-1.496C218.38,55.137,215.752,64.788,221.921,66.613z"/>
	</g>
	<g>
		<path fill="#B7BEC4" d="M237.671,58.613c7.351,1.768,14.8,2.824,22.324,3.492c5.391,0.479,10.913,0.451,16.245,1.433
			c1.149,0.212,1.625,0.487,1.667,0.508c1.298,0.61,2.577,1.231,3.907,1.772c0.719,0.293,1.447,0.557,2.18,0.806
			c6.484-0.081,12.974-0.083,19.466-0.031c1.305-2.626,0.654-6.056-3.006-6.622c-5.2-0.804-10.458-1.671-15.395-3.556
			c-1.819-0.694-3.988-2.024-6.162-2.521c-4.67-1.065-9.67-1.115-14.428-1.445c-8.155-0.567-16.184-1.566-24.142-3.479
			C234.063,47.466,231.403,57.107,237.671,58.613z"/>
	</g>
	<g>
		<path fill="#B7BEC4" d="M315.5,64.293c13.232,0.127,26.281,2.637,39.5,3c6.452,0.178,6.436-9.822,0-10
			c-13.219-0.363-26.268-2.873-39.5-3C309.049,54.23,309.056,64.23,315.5,64.293L315.5,64.293z"/>
	</g>
	<g>
		<path fill="#B7BEC4" d="M336,62.793c8.512,0.072,16.989,0.928,25.5,1c8.854,0.076,17.66-1.421,26.5-1.75
			c6.429-0.238,6.451-10.24,0-10c-8.229,0.307-16.395,1.457-24.625,1.729c-9.123,0.301-18.252-0.899-27.375-0.979
			C329.549,52.736,329.556,62.736,336,62.793L336,62.793z"/>
	</g>
	<g>
		<path fill="#B7BEC4" d="M355.75,61.543c12.354-0.012,24.706-0.165,37,1.25c6.4,0.736,6.329-9.271,0-10
			c-12.294-1.415-24.646-1.262-37-1.25C349.303,51.549,349.302,61.549,355.75,61.543L355.75,61.543z"/>
	</g>
	<g>
		<path fill="#B7BEC4" d="M673.25,58.543c-24.675-0.744-49.433-1.764-74.117-1.299c-25.438,0.479-50.667,1.459-76.098-0.018
			c-12.352-0.717-24.694-1.535-37.069-1.703c-12.289-0.164-24.507,0.85-36.745,1.824c-24.944,1.987-49.744,0.23-74.721,0.194
			c-6.448-0.009-6.447,9.991,0,10.001c6.317,0.009,12.626,0.137,18.931,0.286c0.804-0.922,2.019-1.514,3.646-1.453
			c3.71,0.139,7.402,1.099,11.094,1.8c5.829,0.119,11.657,0.193,17.487,0.152c1.924-0.073,3.85-0.107,5.782-0.085
			c5.284-0.115,10.57-0.34,15.861-0.744c12.238-0.935,24.431-1.998,36.716-1.987c13.021,0.01,26.028,0.948,39.02,1.717
			c19.241,1.137,38.381,0.885,57.581,0.449c17.547-1.137,35.133-1.462,52.793-1.468c1.418,0,2.523,0.483,3.318,1.237
			c12.182,0.293,24.363,0.729,36.522,1.096C679.702,68.736,679.685,58.736,673.25,58.543z"/>
	</g>
	<g>
		<path fill="#B7BEC4" d="M396.079,61.363c10.765-1.463,21.926,0.543,32.736,0.688c11.382,0.153,22.67,1.323,34.042,1.567
			c23.233,0.499,46.404-2.432,69.636-2.604c46.93-0.351,93.845,2.027,140.757,2.027c6.449,0,6.449-10,0-10
			c-47.562,0-95.125-2.368-142.705-2.014c-23.235,0.174-46.364,3.048-69.611,2.549c-11.35-0.244-22.623-1.398-33.989-1.551
			c-11.239-0.151-22.313-1.83-33.523-0.307C387.057,52.587,389.777,62.221,396.079,61.363L396.079,61.363z"/>
	</g>
	<g>
		<path fill="#B7BEC4" d="M383.25,62.043c11.872-1.049,23.778,0.221,35.659-0.584c12.514-0.85,24.788-1.402,37.341-0.916
			c11.793,0.458,23.509-1.2,35.25-2c12.973-0.884,26.011-0.773,39-1.25c25.116-0.92,50.159-3.534,75.302-3.744
			c12.605-0.105,25.216-0.22,37.821-0.254c12.97-0.036,25.908-1.66,38.877-1.002c6.448,0.327,6.416-9.675,0-10
			c-12.354-0.627-24.652,0.911-37,1c-12.582,0.091-25.166,0.238-37.75,0.25c-25.155,0.023-50.195,2.8-75.318,3.689
			c-12.341,0.438-24.693,0.554-37.031,1.105c-12.441,0.559-24.784,2.438-37.259,2.266c-12.536-0.174-24.879-0.527-37.392,0.688
			c-12.474,1.213-25.016-0.353-37.5,0.75C376.878,52.605,376.824,62.609,383.25,62.043L383.25,62.043z"/>
	</g>
	<g>
		<path fill="#B7BEC4" d="M649.422,55.863c13.221,1.91,26.595,1.015,39.828,2.68c6.388,0.805,6.311-9.206,0-10
			c-12.341-1.553-24.858-0.544-37.171-2.32C645.775,45.313,643.06,54.945,649.422,55.863L649.422,55.863z"/>
	</g>
	<g>
		<path fill="#B7BEC4" d="M389.875,60.168c18.963-0.172,37.903-2.34,56.875-2.764c9.774-0.219,19.576-0.586,29.354-0.484
			c3.539,0.037,7.247,0.553,10.726-0.29c1.56-0.377,2.583-1.665,4.219-1.868c1.911-0.238,3.77-0.354,5.656-0.771
			c6.296-1.396,3.625-11.037-2.657-9.643c-3.379,0.748-6.39,0.69-9.569,2.254c-2.622,1.287-7.162,0.332-10.272,0.299
			c-9.142-0.096-18.313,0.32-27.455,0.506c-18.974,0.382-37.908,2.591-56.874,2.763C383.431,50.227,383.424,60.227,389.875,60.168
			L389.875,60.168z"/>
	</g>
	<g>
		<path fill="#B7BEC4" d="M459.465,53.453c4.843,4.102,11.633,2.658,17.504,2.345c4.792-0.257,9.498-1.364,14.297-1.677
			c4.607-0.299,9.244-0.203,13.859-0.203c6.448,0,6.448-10,0-10c-6.937,0-13.879-0.079-20.766,0.866
			c-3.601,0.493-7.092,1.067-10.734,1.134c-1.274,0.023-6.288,1.143-7.09,0.465C461.647,42.243,454.536,49.281,459.465,53.453
			L459.465,53.453z"/>
	</g>
	<g>
		<path fill="#B7BEC4" d="M507,53.543c25.63,0.325,51.291-1.689,76.949-2.568c12.985-0.445,25.985-0.535,38.977-0.556
			c12.384-0.019,25.251,2.247,37.528,0.569c6.365-0.868,3.646-10.502-2.657-9.643c-5.889,0.805-12.086-0.191-17.985-0.513
			c-6.276-0.341-12.552-0.422-18.836-0.412c-12.985,0.021-25.976,0.175-38.953,0.618c-12.846,0.439-25.663,1.451-38.522,1.503
			c-5.984,0.022-11.933,0.418-17.875,1.125c-6.181,0.735-12.429-0.046-18.625-0.125C500.549,43.461,500.557,53.461,507,53.543
			L507,53.543z"/>
	</g>
	<g>
		<path fill="#B7BEC4" d="M511.047,51.363c11.555,1.904,22.585-0.584,34.047-1.899c6.268-0.72,12.645-0.442,18.942-0.681
			c6.553-0.246,13.098-0.674,19.644-1.032c25.595-1.405,51.318-1.63,76.945-1.333c6.451,0.075,6.444-9.925,0-10
			c-24.327-0.282-48.713-0.02-73.018,1.129c-12.388,0.586-24.73,1.316-37.134,1.525c-12.303,0.207-24.417,4.685-36.769,2.648
			C507.399,40.684,504.695,50.316,511.047,51.363L511.047,51.363z"/>
	</g>
	<g>
		<path fill="#B7BEC4" d="M615.375,45.793c4.231,0.34,8.408,1.04,12.579-0.18c4.898-1.43,4.634-8.098,0-9.643
			c-1.278-0.427-2.62-0.52-3.954-0.679c0,3.333,0,6.667,0,10c0.668,0,1.334,0,2,0c6.449,0,6.449-10,0-10c-0.666,0-1.332,0-2,0
			c-2.726,0-5,2.274-5,5c0,2.97,2.295,4.679,5,5c0.912,0.108,0.403,0.024,1.297,0.321c0-3.215,0-6.43,0-9.643
			c-3.172,0.926-6.692,0.08-9.922-0.18c-2.721-0.219-5,2.439-5,5C610.375,43.684,612.659,45.574,615.375,45.793L615.375,45.793z"/>
	</g>
	<g>
		<path fill="#B7BEC4" d="M620.25,45.043c12.856-0.045,25.207-2.688,37.964-3.363c6.098-0.324,12.318,0.137,18.427,0.176
			c6.574,0.043,13.387-0.353,19.905,0.635c6.306,0.955,9.018-8.68,2.657-9.643c-12.83-1.942-26.262-1.005-39.214-1.206
			c-6.416-0.1-12.898,1.217-19.213,2.197c-6.771,1.051-13.686,1.182-20.526,1.205C613.804,35.064,613.801,45.064,620.25,45.043
			L620.25,45.043z"/>
	</g>
	<g>
		<path fill="#B7BEC4" d="M664.5,48.043c15.438,0.027,30.73,2.07,46.125,2.25c6.452,0.075,6.444-9.925,0-10
			c-15.395-0.18-30.688-2.223-46.125-2.25C658.052,38.031,658.053,48.031,664.5,48.043L664.5,48.043z"/>
	</g>
	<g>
		<path fill="#B7BEC4" d="M679,66.418c13.752-0.021,27.491-0.361,41.243-0.064c14.866,0.318,29.604-1.576,44.46-1.436
			c6.829,0.064,13.643-0.165,20.47-0.234c6.915-0.07,13.717,1,20.573,1.738c14.908,1.607,29.792,1.205,44.754,1.371
			c6.451,0.07,6.444-9.93,0-10c-14.309-0.158-28.539,0.2-42.807-1.172c-6.909-0.664-13.753-1.799-20.702-1.934
			c-7.424-0.143-14.858,0.301-22.288,0.229c-14.228-0.136-28.341,1.677-42.57,1.472c-14.386-0.209-28.748,0.008-43.133,0.028
			C672.553,56.428,672.552,66.428,679,66.418L679,66.418z"/>
	</g>
	<g>
		<path fill="#B7BEC4" d="M742.125,67.543c10.679,0.055,21.164,0.543,31.784-0.881c10.914-1.465,21.81-0.48,32.716,0.131
			c6.446,0.361,6.411-9.641,0-10c-10.979-0.616-21.722-1.33-32.716-0.131c-10.669,1.162-21.067,0.936-31.784,0.881
			C735.676,57.51,735.679,67.51,742.125,67.543L742.125,67.543z"/>
	</g>
	<g>
		<path fill="#B7BEC4" d="M690.75,57.418c12.851-0.064,25.664,0.962,38.5,1.375c6.432,0.207,12.869-0.309,19.252-1.045
			c6.848-0.79,13.563-2.376,20.483-2.188c6.176,0.168,12.313,1.436,18.458,2.01c7.232,0.677,14.468,0.99,21.664,2.041
			c12.864,1.877,25.413,1.807,38.393,1.807c6.449,0,6.449-10,0-10c-12.673,0-24.942,0.126-37.506-1.708
			c-12.933-1.888-26.234-2.952-39.261-4.047c-6.051-0.509-11.866,0.569-17.817,1.483c-7.19,1.104-14.449,1.66-21.724,1.676
			c-13.488,0.029-26.942-1.473-40.442-1.404C684.304,47.45,684.301,57.45,690.75,57.418L690.75,57.418z"/>
	</g>
	<g>
		<path fill="#B7BEC4" d="M714.5,49.918c11.061,0.592,22.11,0.717,33.161,1.557c11.026,0.836,22.033,1.848,33.089,2.193
			c10.944,0.343,21.885-0.564,32.832-0.109c11.533,0.48,22.984,1.799,34.543,1.859c6.45,0.034,6.447-9.966,0-10
			c-10.901-0.059-21.757-0.986-32.625-1.75c-10.914-0.766-21.886,0.09-32.813,0.029c-11.04-0.059-22.084-1.198-33.081-2.071
			c-11.7-0.931-23.396-1.082-35.106-1.708C708.054,39.572,708.086,49.575,714.5,49.918L714.5,49.918z"/>
	</g>
	<g>
		<path fill="#B7BEC4" d="M691.75,41.168c26.195,0.076,52.547,2.055,78.69,3.639c13.297,0.805,26.5,2.289,39.694,4.096
			c6.171,0.847,12.358,1.481,18.576,1.863c6.719,0.411,13.231-0.336,19.914-0.348c6.448-0.012,6.449-10.012,0-10
			c-6.028,0.012-11.931,0.688-17.989,0.445c-6.609-0.266-13.209-0.969-19.761-1.866c-12.793-1.753-25.584-3.19-38.472-4.065
			c-26.756-1.816-53.833-3.686-80.653-3.764C685.301,31.149,685.303,41.148,691.75,41.168L691.75,41.168z"/>
	</g>
	<g>
		<path fill="#B7BEC4" d="M687,42.543c2.024-0.113,4.063-0.145,5.954-0.93c3.938-1.631,5.117-6.604,1.194-9.138
			c-1.319-0.852-2.703-1.296-4.194-1.754c0,3.214,0,6.429,0,9.642c1.794-0.627,3.86-0.277,5.737-0.225
			c2.281,0.063,4.521-0.433,6.73-0.938c6.064-1.385,11.854-2.063,18.082-2.288c13.482-0.487,26.948-1.375,40.438-1.812
			c13.055-0.422,26.092,0.438,39.146,0.439c12.52,0.003,24.922,1.75,37.412,1.75c6.449,0,6.449-10,0-10
			c-12.488,0-24.895-1.732-37.412-1.75c-13.705-0.02-27.375-0.82-41.082-0.378c-13.468,0.435-26.91,1.33-40.373,1.816
			c-5.845,0.211-11.595,0.751-17.274,2.177c-4.611,1.158-9.637,0.015-14.063,1.563c-4.623,1.617-4.899,8.139,0,9.643
			c0.657,0.121,1.26,0.369,1.807,0.746c0.398-3.045,0.796-6.092,1.193-9.139c-1.14,0.472-2.069,0.502-3.296,0.571
			C680.59,32.904,680.555,42.906,687,42.543L687,42.543z"/>
	</g>
	<g>
		<path fill="#B7BEC4" d="M770.25,39.168c14.021-0.27,27.979,0.949,41.953,1.9c14.191,0.967,28.193,0.842,42.219,3.545
			c6.3,1.216,8.985-8.422,2.658-9.643c-14.306-2.758-28.496-2.872-42.976-3.778c-14.617-0.915-29.19-2.307-43.854-2.025
			C763.811,29.292,763.799,39.292,770.25,39.168L770.25,39.168z"/>
	</g>
	<g>
		<path fill="#B7BEC4" d="M855,65.918c26.918-0.063,54.071-1.572,80.92-3.439c12.475-0.867,24.885-2.361,37.409-2.197
			c13.594,0.18,27.053,2.666,40.672,2.763c6.449,0.046,6.445-9.954,0-10c-13.008-0.092-25.84-2.147-38.811-2.711
			c-13.104-0.567-26.227,1.173-39.269,2.146c-26.817,2.004-54.027,3.377-80.921,3.439C848.553,55.934,848.552,65.934,855,65.918
			L855,65.918z"/>
	</g>
	<g>
		<path fill="#B7BEC4" d="M1019.581,60.223c-12.268-1.668-24.537-1.787-36.896-1.604c-12.928,0.19-25.83-0.013-38.756-0.132
			c-6.521-0.062-13.047,0.062-19.569,0.07c-6.06,0.008-11.983,1.391-18.022,1.715c-12.309,0.66-25.316,0.043-37.584-1.104
			c-6.424-0.6-6.365,9.406-0.002,10c2.077,0.193,4.167,0.352,6.262,0.493c11.017,0.229,22.034,0.423,33.065,0.215
			c0.474-0.009,0.908,0.042,1.312,0.135c4.351-0.453,8.66-1.242,13.04-1.422c6.477-0.267,13.029-0.116,19.513-0.114
			c12.333,0.006,24.65,0.396,36.986,0.202c12.656-0.198,25.416-0.522,37.994,1.188C1023.225,70.723,1025.944,61.088,1019.581,60.223
			z"/>
	</g>
	<g>
		<path fill="#B7BEC4" d="M848.547,58.363c5.382,2.189,12.347,1.484,18.055,1.541c7.077,0.068,14.139-0.098,21.206-0.471
			c14.389-0.761,28.722-2.027,43.134-2.379c14.396-0.351,28.801,0.004,43.159,1.1c7.072,0.539,14.1,1.154,21.193,1.33
			c7.213,0.179,14.176-0.582,21.332-1.316c6.35-0.652,6.414-10.658,0-10c-13.004,1.335-25.545,1.523-38.594,0.318
			c-14.342-1.327-28.761-1.688-43.157-1.504c-14.418,0.184-28.764,1.299-43.145,2.22c-7.141,0.457-14.283,0.717-21.439,0.716
			c-5.852-0.002-13.594,1.038-19.087-1.195C845.229,46.29,842.656,55.968,848.547,58.363L848.547,58.363z"/>
	</g>
	<g>
		<path fill="#B7BEC4" d="M848.478,50.109c5.092,2.328,10.524,2.377,16.022,2.842c6.843,0.576,13.683,0.443,20.531,0.137
			c6.589-0.295,13.135-1.275,19.719-1.67c7.61-0.456,15.263-0.273,22.882-0.236c14.924,0.07,29.842,0.748,44.728,1.777
			c14.457,1,28.697,1.809,43.141,0.084c6.32-0.755,6.395-10.764,0-10c-27.146,3.24-54.811-1.33-82.042-1.798
			c-13.829-0.238-27.524-0.095-41.293,1.272c-6.704,0.664-13.431,0.939-20.166,0.816c-5.431-0.1-13.437,0.445-18.477-1.859
			C847.704,38.814,842.618,47.432,848.478,50.109L848.478,50.109z"/>
	</g>
	<g>
		<path fill="#B7BEC4" d="M860.625,45.543c26.582-0.02,53.156-0.73,79.736-0.877c13.24-0.073,26.504-0.068,39.735,0.449
			c6.191,0.242,12.363,0.771,18.559,0.912c5.803,0.132,11.564-0.444,17.348,0.266c6.391,0.784,6.314-9.227,0-10
			c-5.77-0.708-11.555-0.218-17.348-0.266c-6.189-0.049-12.375-0.616-18.559-0.912c-13.217-0.635-26.504-0.508-39.735-0.449
			c-26.581,0.113-53.154,0.857-79.736,0.877C854.178,35.548,854.177,45.548,860.625,45.543L860.625,45.543z"/>
	</g>
	<g>
		<path fill="#B7BEC4" d="M843.204,35.988c2.89-0.418,6.044,0.904,8.921,1.18c3.633,0.348,7.262,0.549,10.908,0.639
			c7.523,0.188,15.07-0.214,22.592-0.356c15.646-0.3,31.302-0.156,46.948-0.156c15.732,0,31.355-0.022,47.042,1.315
			c7.805,0.664,15.563,1.549,23.342,2.447c6.619,0.766,11.385,1.295,16.578-3.229c4.873-4.241-2.23-11.285-7.07-7.071
			c-2.021,1.761-5.039,0.706-7.553,0.499c-3.91-0.324-7.803-0.929-11.699-1.385c-7.738-0.903-15.545-1.484-23.316-2.016
			c-15.035-1.029-30.178-0.562-45.24-0.562c-14.922,0-29.841-0.05-44.76,0.273c-6.844,0.148-13.674,0.381-20.519,0.127
			c-6.31-0.234-12.557-2.258-18.831-1.347C834.185,27.27,836.9,36.904,843.204,35.988L843.204,35.988z"/>
	</g>
	<g>
		<path fill="#B7BEC4" d="M841.454,30.989c8.869-1.457,17.897-0.568,26.75-2.375c9.561-1.951,19.318-1.638,29.066-1.789
			c20.591-0.32,40.991-0.147,61.401,2.914c6.305,0.946,9.018-8.689,2.657-9.643c-20.696-3.104-41.245-3.567-62.136-3.299
			c-9.894,0.126-20.345-0.524-30.086,1.364c-10.078,1.953-20.208,1.526-30.31,3.185C832.445,22.39,835.149,32.025,841.454,30.989
			L841.454,30.989z"/>
	</g>
	<g>
		<path fill="#B7BEC4" d="M869.797,30.614c10.008,3.701,21.774,2.686,32.254,2.285c12.299-0.47,24.382-1.207,36.699-0.565
			c12.078,0.63,24.114,1.729,36.211,1.998c5.646,0.126,11.305-0.041,16.949,0.186c5.705,0.229,11.373,1.275,17.09,1.275
			c6.447,0,6.447-10,0-10c-5.096,0-10.197-0.773-15.271-1.165c-5.602-0.432-11.26-0.197-16.871-0.265
			c-12.094-0.145-24.136-1.186-36.201-1.92c-11.62-0.708-23.096-0.424-34.706,0.258c-10.641,0.625-23.328,2.029-33.496-1.729
			C866.394,18.731,863.802,28.398,869.797,30.614L869.797,30.614z"/>
	</g>
	<g>
		<path fill="#B7BEC4" d="M907.047,24.739c7.734,1.744,16.367-0.117,24.203-0.446c9.305-0.391,18.557-1.143,27.875-1.25
			c6.444-0.074,6.452-10.074,0-10c-8.676,0.1-17.308,0.612-25.966,1.142c-4.465,0.273-8.938,0.545-13.409,0.733
			c-3.357,0.141-6.707,0.931-10.046,0.179C903.425,13.681,900.757,23.322,907.047,24.739L907.047,24.739z"/>
	</g>
	<g>
		<path fill="#B7BEC4" d="M962.821,19.372c0.121-0.771,0.262-1.547,0.273-2.329c0.012-0.78-0.152-1.563-0.273-2.329
			c-0.189-1.212-1.283-2.395-2.298-2.988c-1.155-0.676-2.562-0.859-3.853-0.504c-1.25,0.344-2.332,1.18-2.987,2.298
			c-0.168,0.398-0.336,0.796-0.504,1.194c-0.238,0.886-0.238,1.772,0,2.658c0.02,0.119,0.037,0.237,0.052,0.356
			c-0.061-0.443-0.119-0.886-0.178-1.329c0.047,0.433,0.047,0.854,0,1.287c0.06-0.443,0.119-0.886,0.178-1.329
			c-0.015,0.119-0.032,0.238-0.052,0.356c-0.061,0.443-0.119,0.886-0.179,1.329c0.002,0.902,0.229,1.744,0.683,2.523
			c0.655,1.118,1.737,1.954,2.987,2.298c1.291,0.355,2.698,0.172,3.853-0.504C961.538,21.767,962.632,20.584,962.821,19.372
			L962.821,19.372z"/>
	</g>
	<g>
		<path fill="#B7BEC4" d="M960.41,20.454c0.862-0.901,1.258-1.642,1.725-2.769c0.418-1.015,0.281-2.186,0.063-3.221
			c-0.564-2.667-3.644-4.182-6.151-3.492c-1.25,0.344-2.332,1.18-2.987,2.298c-0.709,1.21-0.789,2.508-0.504,3.853
			c0.01,0.047,0.02,0.094,0.03,0.141c-0.061-0.443-0.119-0.886-0.18-1.329c-0.001,0.047-0.001,0.094-0.002,0.141
			c0.061-0.443,0.119-0.886,0.18-1.329c-0.015,0.099-0.045,0.192-0.091,0.281c0.168-0.398,0.336-0.796,0.504-1.194
			c-0.052,0.1-0.112,0.193-0.184,0.281c0.261-0.337,0.521-0.675,0.782-1.012c-0.079,0.099-0.164,0.192-0.254,0.281
			c-1.881,1.97-1.959,5.111,0,7.071C955.233,22.347,958.53,22.424,960.41,20.454L960.41,20.454z"/>
	</g>
	<g>
		<path fill="#B7BEC4" d="M959.922,25.614c11.608,4.092,23.971,3.828,36.079,4.929c6.424,0.584,6.367-9.421,0-10
			c-11.256-1.023-22.627-0.767-33.422-4.571C956.482,13.822,953.883,23.486,959.922,25.614L959.922,25.614z"/>
	</g>
	<g>
		<path fill="#B7BEC4" d="M960.5,21.543c5.917-0.035,11.562,1.488,17.394,2.24c6.826,0.88,13.742,0.649,20.607,0.635
			c6.447-0.013,6.449-10.013,0-10c-6.289,0.012-12.6,0.168-18.869-0.412c-6.453-0.597-12.59-2.502-19.132-2.463
			C954.054,11.581,954.051,21.581,960.5,21.543L960.5,21.543z"/>
	</g>
	<g>
		<path fill="#B7BEC4" d="M995.126,24.543c4.707,0.308,9.291,1.483,13.922,2.321c2.68,0.485,5.379-0.69,6.148-3.492
			c0.674-2.447-0.807-5.665-3.49-6.15c-5.518-0.999-10.971-2.313-16.58-2.679C988.684,14.123,988.725,24.125,995.126,24.543
			L995.126,24.543z"/>
	</g>
	<g>
		<path fill="#B7BEC4" d="M1006.352,27.985c1.23,0.551,2.461,1.044,3.744,1.448c0.568,0.178,1.137,0.351,1.701,0.537
			c0.285,0.097,0.568,0.2,0.85,0.311c-0.488-0.203-0.461-0.177,0.08,0.079c2.436,1.225,5.4,0.666,6.842-1.794
			c1.313-2.239,0.641-5.617-1.795-6.841c-1.205-0.607-2.463-1.114-3.744-1.538c-0.563-0.186-1.133-0.353-1.699-0.531
			c-0.182-0.057-1.854-0.719-0.932-0.306c-2.486-1.115-5.354-0.743-6.84,1.794C1003.294,23.303,1003.864,26.87,1006.352,27.985
			L1006.352,27.985z"/>
	</g>
	<g>
		<path fill="#B7BEC4" d="M1019.126,62.418c11.4,1.163,22.854,0.702,34.293,0.764c12.043,0.064,24.063,0.84,36.102,1
			c24.025,0.32,47.838-3.639,71.855-2.014c6.439,0.436,6.398-9.566,0-10c-23.361-1.581-46.561,1.891-69.938,2.02
			c-12.037,0.066-24.086-0.845-36.125-0.988c-12.07-0.145-24.154,0.447-36.188-0.78
			C1012.712,51.764,1012.774,61.771,1019.126,62.418L1019.126,62.418z"/>
	</g>
	<g>
		<path fill="#B7BEC4" d="M1022.751,68.168c11.641,0.111,22.732,0.33,34.336-1.083c12.9-1.569,25.719-2.463,38.721-2.47
			c12.529-0.008,25.051,0.613,37.568,1.053c12.578,0.441,25.131,0.699,37.625,2.375c6.377,0.855,6.295-9.156,0-10
			c-11.855-1.59-23.789-1.973-35.732-2.318c-13.154-0.383-26.297-1.054-39.461-1.109c-12.361-0.053-24.621,0.736-36.887,2.244
			c-6.092,0.75-12.186,1.498-18.32,1.761c-5.941,0.253-11.908-0.394-17.85-0.451C1016.3,58.105,1016.305,68.105,1022.751,68.168
			L1022.751,68.168z"/>
	</g>
	<g>
		<path fill="#B7BEC4" d="M1070.251,69.418c12.604-0.005,25.203-0.115,37.793-0.749c11.984-0.604,23.336-0.849,35.254,0.944
			c6.305,0.949,9.018-8.686,2.656-9.643c-12.119-1.824-23.701-2.148-35.922-1.412c-13.24,0.797-26.52,0.854-39.781,0.858
			C1063.803,59.421,1063.802,69.421,1070.251,69.418L1070.251,69.418z"/>
	</g>
	<g>
		<path fill="#B7BEC4" d="M1011.852,51.109c10.086,4.703,22.643,5.023,33.59,5.678c13.807,0.824,27.631,0.775,41.445,1.313
			c13.002,0.506,25.939,1.853,38.967,1.653c12.531-0.19,25.66,1.157,37.977-1.515c6.301-1.367,3.629-11.008-2.658-9.643
			c-11.352,2.463-23.75,0.906-35.316,1.156c-12.357,0.268-24.68-0.934-37.008-1.564c-12.48-0.638-24.996-0.549-37.482-1.098
			c-5.684-0.25-11.35-0.638-17.012-1.188c-5.592-0.545-12.291-1.021-17.453-3.428C1011.094,39.77,1006.012,48.387,1011.852,51.109
			L1011.852,51.109z"/>
	</g>
	<g>
		<path fill="#B7BEC4" d="M1015.477,44.734c3.506,1.894,7.475,2.05,11.361,2.539c6.188,0.781,12.363,1.633,18.559,2.369
			c12.557,1.496,25.289,1.502,37.916,1.711c6.104,0.104,12.207,0.181,18.313,0.188c6.398,0.009,12.715-0.836,19.131-0.659
			c6.525,0.18,13.043,0.641,19.559,1.042c5.764,0.354,11.641-0.118,17.357,0.813c6.307,1.027,9.01-8.607,2.656-9.643
			c-10.973-1.789-22.602-1.404-33.707-1.975c-12.004-0.615-23.936,0.486-35.949,0.342c-11.924-0.145-23.869-0.264-35.773-0.99
			c-6.475-0.395-12.939-1.146-19.365-2.019c-4.365-0.593-11.086-0.236-15.01-2.354C1014.85,33.037,1009.802,41.671,1015.477,44.734
			L1015.477,44.734z"/>
	</g>
	<g>
		<path fill="#B7BEC4" d="M1013.548,35.238c23.459,5.279,47.379,7.988,71.369,9.293c12.098,0.656,24.215,0.9,36.328,0.988
			c12.229,0.088,24.193,1.811,36.381,2.272c6.451,0.245,6.428-9.756,0-10c-11.547-0.438-22.889-2.22-34.473-2.263
			c-12.113-0.047-24.225-0.319-36.324-0.901c-23.748-1.143-47.41-3.81-70.625-9.032
			C1009.925,24.184,1007.257,33.824,1013.548,35.238L1013.548,35.238z"/>
	</g>
	<g>
		<path fill="#B7BEC4" d="M1011.376,26.918c12.281,0.446,24.432,2.245,36.617,3.702c12.129,1.45,24.32,2.116,36.443,3.653
			c12.07,1.531,24.094,3.428,36.158,5.01c12.625,1.654,25.232,2.222,37.906,3.26c6.432,0.527,6.379-9.477,0-10
			c-12.029-0.986-24.008-1.516-36-3.015c-12.074-1.509-24.098-3.406-36.158-5.006c-12.113-1.607-24.285-2.338-36.422-3.679
			c-12.85-1.42-25.609-3.455-38.545-3.925C1004.925,16.684,1004.946,26.685,1011.376,26.918L1011.376,26.918z"/>
	</g>
	<g>
		<path fill="#B7BEC4" d="M1031.673,27.114c9.275,1.394,18.355,1.417,27.703,1.828c10.549,0.464,21.111,1.808,31.615,2.851
			c20.715,2.057,41.58,3.784,62.182,6.82c6.305,0.931,9.02-8.704,2.656-9.642c-20.236-2.984-40.717-4.784-61.068-6.804
			c-9.965-0.989-19.934-1.982-29.91-2.848c-10.201-0.885-20.369-0.323-30.521-1.849
			C1028.024,16.524,1025.313,26.159,1031.673,27.114L1031.673,27.114z"/>
	</g>
	<g>
		<path fill="#B7BEC4" d="M1026.751,33.543c25.941,0.127,51.926,2.434,77.75,4.5c6.434,0.516,6.383-9.489,0-10
			c-25.824-2.066-51.809-4.373-77.75-4.5C1020.302,23.511,1020.303,33.511,1026.751,33.543L1026.751,33.543z"/>
	</g>
	<g>
		<path fill="#B7BEC4" d="M1164.626,60.543c16.271,0,32.543-0.047,48.813,0.078c15.697,0.121,31.262-1.221,46.939,0.797
			c6.383,0.82,6.303-9.188,0-10c-15.039-1.936-30.029-0.904-45.102-0.794c-16.879,0.125-33.77-0.081-50.648-0.081
			C1158.177,50.543,1158.177,60.543,1164.626,60.543L1164.626,60.543z"/>
	</g>
	<g>
		<path fill="#B7BEC4" d="M1170.001,68.043c13.852-1.723,27.826-2.372,41.76-3.066c13.746-0.687,28.258-2.293,41.912,0.014
			c6.305,1.064,9.006-8.57,2.656-9.643c-14.021-2.369-28.504-1.178-42.629-0.469c-14.58,0.73-29.205,1.361-43.699,3.164
			C1163.688,58.828,1163.612,68.838,1170.001,68.043L1170.001,68.043z"/>
	</g>
	<g>
		<path fill="#B7BEC4" d="M1184.501,68.418c14.475-0.027,28.938-0.611,43.408-0.831c6.264-0.097,12.566,0.093,18.814-0.399
			c2.742-0.215,2.795,0.164,4.617,2.017c1.816,1.847,4.863,2.091,7.285,1.965c6.416-0.333,6.447-10.334,0-10
			c-1.357-0.043-1.66,0.005-0.904,0.144c-0.588-0.922-1.586-2.07-2.572-2.586c-2.309-1.203-4.523-1.584-7.117-1.604
			c-6.02-0.047-12.105,0.384-18.139,0.439c-15.135,0.145-30.256,0.828-45.393,0.856
			C1178.053,58.432,1178.052,68.432,1184.501,68.418L1184.501,68.418z"/>
	</g>
	<g>
		<path fill="#B7BEC4" d="M1160.876,52.543c17.225,0.04,34.43,0.926,51.656,0.891c8.119-0.017,16.305-0.025,24.357,1.145
			c7.188,1.045,14.289,2.232,21.439,0.287c6.215-1.69,3.574-11.338-2.658-9.643c-6.775,1.842-13.938-0.043-20.74-0.91
			c-8.027-1.023-16.193-0.892-24.27-0.875c-16.604,0.033-33.186-0.854-49.787-0.895
			C1154.427,42.527,1154.428,52.527,1160.876,52.543L1160.876,52.543z"/>
	</g>
	<g>
		<path fill="#B7BEC4" d="M1159.501,44.918c30.496,0.055,60.9,3.322,91.375,3.25c6.447-0.016,6.449-10.016,0-10
			c-30.475,0.072-60.879-3.195-91.375-3.25C1153.052,34.906,1153.053,44.906,1159.501,44.918L1159.501,44.918z"/>
	</g>
	<g>
		<path fill="#B7BEC4" d="M1130.251,34.668c20.975-0.275,42.014,2.986,62.898,4.645c20.574,1.633,41.023,4.933,61.602,6.355
			c6.439,0.445,6.396-9.559,0-10c-20.576-1.424-41.029-4.707-61.602-6.356c-20.881-1.674-41.928-4.919-62.898-4.644
			C1123.807,24.752,1123.8,34.753,1130.251,34.668L1130.251,34.668z"/>
	</g>
	<g>
		<path fill="#B7BEC4" d="M1222.329,43.113c9.699-1.666,18.566-0.465,28.297-0.07c6.451,0.262,6.426-9.74,0-10
			c-5.477-0.222-10.91-0.956-16.387-1.206c-4.857-0.222-9.805,0.816-14.566,1.634C1213.325,34.563,1216.024,44.197,1222.329,43.113
			L1222.329,43.113z"/>
	</g>
	<g>
		<path fill="#B7BEC4" d="M1252.048,42.988c1.395,0.211,2.787,0.529,4.203,0.555c2.727,0.047,5-2.311,5-5c0-2.762-2.275-4.953-5-5
			c-0.357-0.006-0.711-0.035-1.064-0.079c0.441,0.061,0.885,0.119,1.328,0.179c-0.605-0.086-1.205-0.205-1.811-0.297
			c-1.391-0.209-2.588-0.236-3.852,0.504c-1.119,0.654-1.955,1.738-2.299,2.988c-0.355,1.29-0.172,2.698,0.504,3.854
			C1249.649,41.699,1250.837,42.807,1252.048,42.988L1252.048,42.988z"/>
	</g>
	<g>
		<path fill="#B7BEC4" d="M1256.376,49.293c6.449,0,6.449-10,0-10S1249.927,49.293,1256.376,49.293L1256.376,49.293z"/>
	</g>
	<g>
		<path fill="#B7BEC4" d="M1258.798,44.738c6.59,0.902,13.164,0.947,19.801,1.197c7.695,0.289,15.389,1.188,23.082,1.627
			c15.27,0.873,30.693,1.586,45.918,2.996c14.758,1.367,29.537,2.174,44.293,3.604c15.805,1.534,31.744,2.096,47.406,4.825
			c6.305,1.1,9.002-8.537,2.656-9.643c-29.359-5.119-59.418-4.836-88.963-8.205c-15.072-1.72-30.361-2.16-45.5-3.223
			c-7.775-0.546-15.557-0.936-23.324-1.585c-7.547-0.631-15.205-0.212-22.713-1.237
			C1255.151,34.234,1252.432,43.868,1258.798,44.738L1258.798,44.738z"/>
	</g>
	<g>
		<path fill="#B7BEC4" d="M1259.673,51.613c6.748,1.638,13.814,1.512,20.703,2.13c8.184,0.733,16.338,1.431,24.547,1.813
			c16.172,0.756,32.307-0.16,48.473,0.26c16.195,0.42,32.396,1.957,48.463,3.988c15.842,2.002,31.875,2.244,47.77,3.862
			c6.414,0.653,6.35-9.354,0-10c-14.686-1.495-29.473-1.778-44.129-3.422c-16.033-1.798-32-3.587-48.135-4.29
			c-16.201-0.706-32.408,0.324-48.621-0.242c-7.594-0.266-15.176-0.729-22.74-1.438c-7.754-0.727-16.105-0.471-23.672-2.305
			C1256.063,40.452,1253.405,50.096,1259.673,51.613L1259.673,51.613z"/>
	</g>
	<g>
		<path fill="#B7BEC4" d="M1452.751,59.418c-15.764-1.175-31.414-0.632-47.156-2.418c-16.619-1.887-33.078-2.378-49.793-2.275
			c-16.779,0.103-33.563,0.135-50.301-1.182c-8.145-0.641-16.234-1.82-24.375-2.501c-7.061-0.59-14.324-1.601-21.33-0.194
			c-6.318,1.266-3.637,10.903,2.658,9.641c6.494-1.301,14,0.162,20.547,0.711c8.162,0.683,16.273,1.854,24.441,2.496
			c16.725,1.313,33.535,1.117,50.295,1.017c16.066-0.099,31.885,0.494,47.857,2.288c6.85,0.77,13.682,1.104,20.514,1.337
			c0.803-0.818,1.955-1.339,3.469-1.294c4.777,0.141,9.555,0.012,14.332,0c0.309-0.001,0.598,0.028,0.877,0.071
			c0.674-0.471,1.492-0.796,2.457-0.904c3.414-0.384,6.834-0.565,10.256-0.603C1457.891,62.892,1456.303,59.683,1452.751,59.418z"/>
	</g>
	<g>
		<path fill="#B7BEC4" d="M1446.626,58.918c-15.098-1.182-30.268-0.508-45.393-0.695c-16.26-0.203-32.496-0.478-48.756-0.338
			c-15.701,0.135-31.4,0.283-47.102,0.283h-32.996c-3.439,0-7.418,0.58-10.803-0.07c-6.297-1.214-8.982,8.424-2.654,9.641
			c5.998,1.154,12.563,0.43,18.656,0.43h24.047c16.291,0,32.578-0.111,48.867-0.266c16.279-0.154,32.535,0.033,48.813,0.291
			c8.967,0.143,17.951-0.031,26.928,0.018c0.795-0.747,1.908-1.21,3.344-1.168c4.777,0.141,9.555,0.012,14.332,0
			c0.313-0.001,0.604,0.028,0.885,0.072c0.672-0.469,1.486-0.797,2.449-0.905c1.322-0.148,2.645-0.259,3.969-0.352
			C1452.04,63.026,1450.503,59.221,1446.626,58.918z"/>
	</g>
	<g>
		<path fill="#B7BEC4" d="M1598.878,60.042c-24.625-0.108-49.273-1.112-73.84-2.791c-11.828-0.808-23.484-0.008-35.305-0.177
			c-12.305-0.174-24.814-0.59-37.105-1.282c-6.402-0.36-6.408,9.499-0.129,9.987c6.832-0.389,13.684-0.1,20.508,0.534
			c1.311,0.122,2.629,0.224,3.949,0.321c3.648,0.103,7.297,0.219,10.941,0.387c12.395,0.57,24.715-0.592,37.141,0.229
			c1.828,0.121,3.656,0.224,5.486,0.331c3.018-0.014,6.035-0.037,9.053-0.039c0.09,0,0.174,0.009,0.262,0.013
			c0.918-0.028,1.838-0.062,2.76-0.062c0.807-0.959,2.014-1.609,3.645-1.618c9.436-0.049,18.832,0.829,28.26,0.991
			c8.908,0.152,17.746-0.895,26.65-0.699c0.814,0.018,1.627,0.027,2.439,0.039C1604.169,63.394,1602.598,60.059,1598.878,60.042z"/>
	</g>
	<g>
		<path fill="#B7BEC4" d="M1559.259,66.239c5.08,0.247,10.158,0.54,15.244,0.628c2.098,0.036,4.189,0.002,6.281-0.063
			c2.51-2.281,0.953-7.26-2.328-8.583c-2.814-1.135-5.947-1.269-8.953-1.304c-0.932-0.011-1.723,0.192-2.385,0.541
			c-1.68-0.35-3.326-0.704-4.855-0.873c-6.814-0.753-13.623-1.571-20.439-2.328c-13.145-1.462-26.252-3.022-39.43-4.151
			c-13.18-1.129-26.371-2.008-39.584-2.422c-6.16-0.191-12.34-0.691-18.469-1.328c-6.666-0.689-13.084-2.354-19.84-2.188
			c-6.438,0.159-6.451,10.16,0,10.001c6.119-0.15,12.01,1.17,18.045,1.956c6.707,0.874,13.506,1.28,20.262,1.562
			c13.848,0.578,27.658,1.4,41.477,2.584c13.174,1.129,26.277,2.737,39.416,4.197C1548.889,65.044,1554.073,65.648,1559.259,66.239z
			"/>
	</g>
	<g>
		<path fill="#B7BEC4" d="M1560.876,63.918c8.092-0.174,16.033,1.75,24.043,2.724c3.236-0.15,6.471-0.331,9.709-0.429
			c2.738-2.16,2.104-7.384-1.797-8.865c-0.861-0.328-1.711-0.541-2.582-0.738c-0.883-0.41-1.918-0.58-3.076-0.387
			c-0.25,0.041-0.5,0.082-0.75,0.125c-0.402,0.066-0.756,0.193-1.088,0.346c-8.148-0.957-16.229-2.951-24.459-2.774
			C1554.436,54.057,1554.425,64.057,1560.876,63.918z"/>
	</g>
	<g>
		<path fill="#B7BEC4" d="M1594.348,66.222c2.266-0.071,4.533-0.104,6.805-0.054c4.922,0.107,9.846,0.083,14.771,0.08
			c2.219-2.606,2.023-7.159-2.219-7.902c-5.904-1.033-11.859-1.406-17.83-1.804C1589.997,56.15,1589.522,64.444,1594.348,66.222z"/>
	</g>
	<g>
		<path fill="#B7BEC4" d="M1630.032,66.426c9.023,0.32,18.023,1.169,27.047,1.458c10.779,0.345,21.574,0.231,32.367,0.06
			c0.096-2.001-0.975-3.867-3.615-4.223c-24.441-3.289-49.438-4.135-74.08-4.179c-3.973-0.007-5.494,3.783-4.572,6.699
			C1614.798,66.28,1622.423,66.155,1630.032,66.426z"/>
	</g>
	<g>
		<path fill="#B7BEC4" d="M1916.376,25.412c-16.168,3.333-29.287,13.5-44.477,19.294c-17.92,6.835-37.119,10.812-55.729,15.267
			c-3.76,0.899-4.303,4.722-2.789,7.318c0.287,0.017,0.574,0.034,0.861,0.052c0.686-0.397,1.516-0.636,2.506-0.633
			c4.295,0.015,8.588,0.13,12.877,0.285c14.607-3.594,29.125-7.434,43.447-12.118c15.982-5.229,29.285-16.384,45.959-19.82
			c0.625-0.129,1.158-0.343,1.611-0.617c-0.01-2.575,0.063-5.149,0.313-7.719C1919.862,25.636,1918.288,25.018,1916.376,25.412z"/>
	</g>
	<g>
		<path fill="#B7BEC4" d="M1920.663,31.907c-0.834-0.308-1.797-0.395-2.869-0.152c-15.043,3.396-29.771,7.976-44.563,12.308
			c-14.775,4.326-28.143,11.403-42.561,16.66c-2.891,1.053-3.785,3.834-3.266,6.193c4.449,0.144,8.896,0.342,13.344,0.545
			c11.047-4.57,21.719-9.877,33.277-13.214c15.432-4.455,30.746-9.31,46.424-12.849c0.096-0.021,0.178-0.056,0.27-0.081
			C1920.7,38.18,1920.608,35.041,1920.663,31.907z"/>
	</g>
	<g>
		<path fill="#B7BEC4" d="M1920.708,39.786c-0.408-0.091-0.852-0.134-1.332-0.118c-6.379,0.204-12.256,1.947-18.182,4.209
			c-6.504,2.482-13.115,4.557-19.646,6.95c-5.986,2.194-11.863,4.614-18.008,6.354c-6.889,1.948-14.41,3.029-21.492,4.041
			c-3.475,0.495-4.236,3.589-3.193,6.152c6.832,0.309,13.664,0.631,20.504,0.777c7.854-1.802,15.514-4.139,23.225-7.073
			c5.939-2.261,12.057-3.964,17.979-6.269c6.109-2.379,12.178-4.931,18.814-5.143c0.375-0.012,0.719-0.07,1.047-0.147
			C1920.741,46.277,1920.751,43.031,1920.708,39.786z"/>
	</g>
	<g>
		<path fill="#B7BEC4" d="M1920.391,49.926c-10.033,0.03-19.676,0.421-29.602,2.266c-10.361,1.928-20.705,4.44-31.289,4.602
			c-6.441,0.098-6.451,10.098,0,10c10.227-0.154,20.332-2.305,30.334-4.259c10.211-1.998,19.998-2.554,30.318-2.604
			C1919.995,56.466,1920.085,53.017,1920.391,49.926z"/>
	</g>
	<g>
		<path fill="#B7BEC4" d="M1920.104,58.703c-0.119-0.01-0.23-0.032-0.354-0.035c-5.729-0.154-11.402,0.811-17.139,0.758
			c-6.936-0.063-13.883-0.855-20.807-1.236c-13.688-0.756-27.438-0.314-41.107-1.185c-0.541-0.034-1.078-0.073-1.617-0.111
			c-0.475-0.123-1.008-0.167-1.598-0.117c-11.963-0.914-23.471-2.509-35.58-1.376c-13.309,1.246-26.709,0.263-40.027,1.519
			c-6.379,0.603-6.498,9.571,0,10c1.342,0.088,2.684,0.169,4.023,0.255c0.449-0.045,0.896-0.082,1.344-0.131
			c0.996-0.109,1.836,0.042,2.521,0.376c1.057,0.065,2.113,0.139,3.17,0.201c13.738-0.945,27.564-1.1,41.305-0.277
			c0.686-0.398,1.52-0.636,2.51-0.633c5.572,0.019,11.139,0.199,16.703,0.429c1.266-0.082,2.531-0.188,3.799-0.345
			c0.111-0.014,0.215-0.037,0.322-0.056c0.416,0.039,0.83,0.087,1.246,0.123c13.586,1.193,27.385,0.562,41.02,1.227
			c1.539,0.075,3.078,0.166,4.615,0.263c2.934-0.579,5.619-1.017,8.344-0.722c0.904-0.871,2.121-1.419,3.451-1.419
			c0.83,0,1.607,0.23,2.303,0.602c0.939-0.527,2.068-0.786,3.359-0.59c5.574,0.849,12.643,1.542,18.008-0.667
			c0.246-0.101,0.482-0.174,0.717-0.235C1920.348,63.153,1920.169,60.924,1920.104,58.703z"/>
	</g>
	<g>
		<path fill="#B7BEC4" d="M1759.126,64.543c12.826-0.033,25.756-3.32,38.5-4.699c12.553-1.357,25.234-2.166,37.641-4.598
			c12.625-2.475,25.184-4.924,37.879-7.029c6.41-1.063,12.734-2.451,19.1-3.746c4.979-1.015,10.145-2.271,14.279-5.359
			c5.105-3.811,0.127-12.498-5.047-8.635c-3.852,2.875-8.584,3.678-13.199,4.617c-5.928,1.207-11.822,2.472-17.791,3.481
			c-12.102,2.048-24.129,4.123-36.137,6.671c-12.063,2.562-24.479,3.312-36.725,4.599c-12.736,1.34-25.701,4.666-38.5,4.699
			C1752.678,54.561,1752.677,64.561,1759.126,64.543L1759.126,64.543z"/>
	</g>
	<g>
		<path fill="#B7BEC4" d="M1921.199,24.105c-0.063-0.907-0.122-1.814-0.194-2.718c-0.969-0.519-2.182-0.655-3.582-0.165
			c-11.59,4.06-23.797,6.436-35.992,7.746c-13,1.397-25.994,1.37-38.959,3.33c-12.785,1.933-25.395,4.929-38.049,7.55
			c-6.135,1.271-12.223,2.741-18.41,3.739c-6.113,0.987-12.184,3.664-18.387,3.706c-2.061,0.041-3.461,1.087-4.203,2.485
			c-1.717,0.011-3.533-0.196-4.547-0.235c-6.451-0.247-6.428,9.754,0,10c4.797,0.185,10.662,0.264,14.598-2.872
			c3.408-0.649,6.732-1.691,10.141-2.571c6.447-1.662,13.258-2.398,19.783-3.83c13.213-2.896,26.469-5.804,39.813-8.023
			c13.299-2.212,26.703-2.039,40.066-3.477c12.451-1.338,24.975-3.762,36.805-7.905c0.223-0.078,0.424-0.174,0.623-0.272
			c0.057-1.74,0.16-3.479,0.377-5.216c0.018-0.139,0.053-0.265,0.08-0.396C1921.159,24.691,1921.169,24.403,1921.199,24.105z"/>
	</g>
	<g>
		<path fill="#B7BEC4" d="M1811.626,52.418c9.721-0.084,19.324-1.346,28.865-3.152c10.205-1.936,20.178-5.174,30.635-5.348
			c6.441-0.107,6.453-10.107,0-10c-9.527,0.159-18.613,2.586-27.867,4.596c-10.436,2.264-20.941,3.813-31.633,3.904
			C1805.18,42.475,1805.175,52.475,1811.626,52.418L1811.626,52.418z"/>
	</g>
	<g>
		<path fill="#B7BEC4" d="M1766.661,60.078c1.047-1.288,2.18-2.523,2.535-4.206c0.285-1.345,0.205-2.644-0.504-3.853
			c-0.654-1.119-1.736-1.955-2.986-2.299c-2.508-0.689-5.586,0.825-6.15,3.492c-0.033,0.152-0.074,0.291-0.131,0.436
			c0.168-0.396,0.336-0.795,0.504-1.193c-0.135,0.292-0.307,0.551-0.5,0.807c0.262-0.338,0.521-0.675,0.781-1.013
			c-0.201,0.257-0.414,0.505-0.619,0.759c-0.871,1.073-1.465,2.102-1.465,3.535c0,1.32,0.531,2.604,1.465,3.535
			c0.934,0.934,2.215,1.465,3.535,1.465C1764.331,61.543,1765.87,61.055,1766.661,60.078L1766.661,60.078z"/>
	</g>
	<g>
		<path fill="#B7BEC4" d="M1763.751,57.793c6.449,0,6.449-10,0-10S1757.302,57.793,1763.751,57.793L1763.751,57.793z"/>
	</g>
	<g>
		<path fill="#B7BEC4" d="M1919.997-0.161c-0.82-0.134-1.637-0.215-2.453-0.27c-1.066,0.301-2.049,1.025-2.734,2.326
			c-0.365,0.691-1.402,3.012-1.52,3.097c-1.57,1.131-2.594,2.176-3.527,3.872c-0.906,1.642-1.262,3.375-2.863,4.548
			c-2.074,1.518-5.049,2.004-7.479,2.642c-6.781,1.78-13.781,2.319-20.686,3.396c-5.328,0.831-10.641,1.765-15.939,2.752
			c-3.264,0.607-9.4,0.823-11.236,4.194c-2.631,4.83,3.258,9.206,6.963,6.879c0.064-0.018,0.121-0.033,0.195-0.053
			c0.824-0.207,1.66-0.375,2.494-0.549c2.709-0.567,5.436-1.056,8.16-1.546c4.617-0.83,9.244-1.634,13.887-2.314
			c0.119,0,3.473-0.438,3.52-0.444c2.193-0.28,4.381-0.595,6.566-0.931c5.119-0.785,10.215-1.9,15.078-3.692
			c3.787-1.395,6.572-3.798,8.75-7.154c1.018-1.567,2.074-3.045,3.105-4.545C1920.007,7.981,1919.852,3.918,1919.997-0.161z"/>
		<path fill="#B7BEC4" d="M1858.313,33.332C1857.667,33.679,1857.382,33.602,1858.313,33.332L1858.313,33.332z"/>
	</g>
	<g>
		<path fill="#B7BEC4" d="M1920.253,11.631c-0.164,0.006-0.33,0.016-0.502,0.037c-3.828,0.468-7.055,1.923-10.68,3.127
			c-3.715,1.234-7.555,2.09-11.398,2.801c-6.336,1.172-3.646,10.809,2.656,9.643c3.385-0.626,6.715-1.411,10.02-2.372
			c3.098-0.9,6.195-2.808,9.402-3.2c0.451-0.055,0.865-0.162,1.254-0.303C1920.745,18.112,1920.462,14.871,1920.253,11.631z"/>
	</g>
	<g>
		<path fill="#B7BEC4" d="M1918.266,10.897c0.625-0.145,1.266-0.305,1.91-0.488c-0.205-3.463-0.303-6.926-0.186-10.4
			c-0.275,0.041-0.549,0.106-0.818,0.213c-0.646,0.256-1.76,0.942-2.395,1.011c-1.809,0.196-3.42,0.299-4.813,1.649
			c-0.219,0.192-0.418,0.4-0.607,0.618c-0.326-0.039-0.652-0.072-0.982-0.083c-1.932-0.061-3.279,0.797-4.053,2.03
			c-1.584,0.823-2.697,2.358-2.697,4.346c0,2.601,2.277,5.165,5,5c0.039-0.002,0.076-0.009,0.115-0.012
			C1912.382,14.526,1915.991,13.549,1918.266,10.897z"/>
		<path fill="#B7BEC4" d="M1908.626,4.791v0.002c-0.006,0-0.012,0.002-0.018,0.002C1908.614,4.795,1908.62,4.792,1908.626,4.791z"/>
	</g>
	<g>
		<path fill="#B7BEC4" d="M1907.477,4.351c-4.291,2.29-8.982,3.243-13.658,4.436c-5.293,1.35-10.348,3.473-15.646,4.842
			c-5.328,1.376-10.789,2.128-16.092,3.609c-5.059,1.413-9.926,3.517-14.783,5.484c-9.326,3.776-19.547,5.062-29.188,7.86
			c-10.783,3.13-21.744,5.572-32.438,9.016c-8.49,2.731-17.029,5.313-25.564,7.904c-8.244,2.502-16.691,5.788-25.188,7.335
			c-6.338,1.153-3.646,10.79,2.658,9.644c8.494-1.547,16.941-4.836,25.188-7.336c9.133-2.769,18.26-5.556,27.346-8.479
			c10.096-3.249,20.484-5.451,30.654-8.441c10.244-3.012,20.885-4.498,30.814-8.518c10.225-4.14,20.438-6.161,31.057-8.902
			c5.258-1.358,10.262-3.463,15.525-4.806c4.994-1.274,9.787-2.573,14.361-5.013C1918.216,9.949,1913.165,1.316,1907.477,4.351
			L1907.477,4.351z"/>
	</g>
	<g>
		<path fill="#B7BEC4" d="M1756.466,51.758c-0.133,0.145-0.271,0.282-0.416,0.413c0.66-0.479,0.783-0.575,0.367-0.285
			c-0.357,0.247-1.463,0.625,0.053,0.056c-0.322,0.121-0.662,0.197-0.998,0.271c-0.176,0.036-0.354,0.068-0.531,0.1
			c-1.039,0.182,1.277-0.158,0.188-0.02c-1.385,0.176-2.508,0.438-3.535,1.465c-0.934,0.934-1.465,2.215-1.465,3.535
			c0,2.465,2.289,5.346,5,5c3.203-0.407,6.074-1.033,8.41-3.465c1.887-1.965,1.955-5.115,0-7.07
			C1761.639,49.859,1758.352,49.792,1756.466,51.758L1756.466,51.758z"/>
	</g>
	<g>
		<path fill="#B7BEC4" d="M1766.606,67.105c2.088-3.07-0.627-8.771-5.559-7.883c-2.262,0.405-4.635,0.104-6.922,0.32
			c-2.695,0.257-5.287,1.029-8,1.125c-4.205,0.149-5.658,4.473-4.361,7.385C1750.063,68.127,1758.352,67.971,1766.606,67.105z"/>
	</g>
	<g>
		<path fill="#B7BEC4" d="M1756.501,51.668c-3.736,0.355-7.535,1.457-11.078,2.68c-2.574,0.887-4.25,3.396-3.492,6.149
			c0.688,2.501,3.572,4.381,6.15,3.491c1.602-0.551,3.273-0.821,4.875-1.375c1.217-0.42,2.477-0.844,3.545-0.945
			c2.713-0.259,5-2.079,5-5C1761.501,54.139,1759.219,51.409,1756.501,51.668L1756.501,51.668z"/>
	</g>
	<g>
		<path fill="#B7BEC4" d="M1746.126,56.168c-2.264,0.046-4.482,0.57-6.75,0.5c-2.727-0.085-5,2.339-5,5c0,2.79,2.275,4.915,5,5
			c2.268,0.07,4.486-0.454,6.75-0.5c2.725-0.055,5-2.232,5-5C1751.126,58.484,1748.852,56.113,1746.126,56.168L1746.126,56.168z"/>
	</g>
	<g>
		<path fill="#B7BEC4" d="M1749.942,58.645c-0.9-1.613-2.566-2.779-4.361-3.172c-1.34-0.295-2.648-0.201-3.854,0.504
			c-1.119,0.653-1.955,1.737-2.299,2.987c-0.693,2.521,0.83,5.565,3.492,6.149c0.186,0.041,0.359,0.091,0.539,0.154
			c-0.398-0.168-0.799-0.336-1.195-0.504c0.16,0.069,0.303,0.147,0.445,0.248c-0.338-0.261-0.676-0.521-1.014-0.781
			c0.098,0.08,0.18,0.162,0.262,0.26c-0.262-0.338-0.521-0.676-0.783-1.012c0.051,0.065,0.096,0.137,0.133,0.213
			c1.328,2.375,4.525,3.15,6.842,1.793C1750.532,64.09,1751.274,61.023,1749.942,58.645L1749.942,58.645z"/>
	</g>
	<g>
		<path fill="#B7BEC4" d="M1732.723,67.393c0.344,0.246,0.734,0.409,1.139,0.538c1.246,0.025,2.492,0.049,3.738,0.069
			c0.766-0.148,1.504-0.354,2.148-0.579c1.463-0.51,2.781-1.187,4.332-1.433c2.695-0.426,4.152-3.748,3.49-6.149
			c-0.781-2.846-3.461-3.917-6.148-3.491c-1.137,0.18-2.174,0.545-3.23,0.987c-0.488,0.205-0.98,0.401-1.482,0.576
			c-0.152,0.051-0.309,0.089-0.463,0.131c-0.98-0.09-2.006,0.084-2.982,0.5C1729.653,60.348,1729.292,64.943,1732.723,67.393z"/>
	</g>
	<g>
		<path fill="#B7BEC4" d="M1713.221,67.626c7.914-0.035,15.85,0.228,23.783,0.365c0.381-0.169,0.762-0.336,1.145-0.505
			c5.887-2.605,0.793-11.219-5.047-8.635c-4.484,1.983-8.813,1.604-13.43,2.871c-2.475,0.678-4.904,1.754-7.375,2.5
			c-1.129,0.34-2.262,1.015-3.414,1.551c-1.666-0.801-3.717-0.718-5.418,0.984c-0.318,0.319-0.604,0.641-0.863,0.979
			C1706.143,67.686,1709.682,67.642,1713.221,67.626z"/>
	</g>
	<g>
		<path fill="#B7BEC4" d="M1730.956,67.488c0.311-0.076,0.619-0.148,0.938-0.203c-0.443,0.061-0.887,0.119-1.33,0.179
			c0.189-0.024,0.373-0.04,0.564-0.046c2.723-0.082,5-2.213,5-5c0-2.664-2.275-5.082-5-5c-0.953,0.027-1.904,0.197-2.83,0.43
			c-2.645,0.656-4.201,3.572-3.492,6.149C1725.54,66.672,1728.313,68.146,1730.956,67.488L1730.956,67.488z"/>
	</g>
	<g>
		<path fill="#B7BEC4" d="M842.922,20.972c-4.308,0.627-8.624,0.154-12.944,0.442c-4.818,0.32-9.179,1.045-14.046,0.583
			c-9.966-0.946-20.04,0.645-30.057,0.671c-6.447,0.017-6.448,10.017,0,10c10.012-0.026,20.097-1.644,30.057-0.671
			c4.851,0.474,9.24-0.043,14.046-0.583c5.194-0.583,10.38-0.039,15.603-0.799C851.942,29.688,849.227,20.053,842.922,20.972
			L842.922,20.972z"/>
	</g>
	<g>
		<path fill="#B7BEC4" d="M1910.716,1.757c0.088-0.068-4.498,1.081-5.418,1.464c-2.662,1.107-5.471,1.764-8.25,2.5
			c-5.998,1.587-11.855,3.322-17.625,5.625c-5.914,2.36-3.336,12.036,2.658,9.643c6.307-2.518,12.732-4.33,19.285-6.065
			c3.145-0.832,6.148-1.823,9.131-3.124c2.744-1.198,4.799-1.035,7.289-2.972C1922.874,4.875,1915.741-2.149,1910.716,1.757
			L1910.716,1.757z"/>
	</g>
	<g>
		<path fill="#B7BEC4" d="M1919.411,0.382c-0.27-0.301-0.578-0.541-0.908-0.741c-1.627-0.165-3.248-0.18-4.879-0.158
			c-0.473,0.231-0.912,0.528-1.283,0.899c-0.754,0.754-1.229,1.738-1.391,2.783c-1.193,1.255-1.74,3.128-1.271,4.833
			c0.742,2.696,3.502,4.119,6.152,3.491c1.67-0.396,3.152-1.134,4.275-2.375c-0.137-2.691-0.205-5.384-0.146-8.083
			C1919.78,0.809,1919.596,0.59,1919.411,0.382z"/>
	</g>
	<g>
		<path fill="#B7BEC4" d="M1828.081,60.363c2.898-0.393,5.846,0.219,8.738-0.455c2.896-0.676,5.684-1.932,8.682-1.99
			c6.439-0.126,6.453-10.126,0-10c-3.523,0.068-6.729,1.08-10.078,2.055c-3.105,0.9-6.773,0.313-10,0.75
			c-2.707,0.365-4.143,3.791-3.492,6.149C1822.723,59.761,1825.382,60.73,1828.081,60.363L1828.081,60.363z"/>
	</g>
	<g>
		<path fill="#B7BEC4" d="M247.421,57.863c2.729,0.423,5.464,0.521,8.204,0.805c2.716,0.279,5-2.486,5-5c0-2.938-2.29-4.721-5-5
			c-0.979-0.102-1.96-0.169-2.941-0.232c-0.496-0.031-0.991-0.066-1.486-0.104c-0.185-0.015-2.1-0.261-1.118-0.108
			c-2.69-0.416-5.366,0.641-6.149,3.492C243.271,54.109,244.724,57.447,247.421,57.863L247.421,57.863z"/>
	</g>
	<g>
		<path fill="#B7BEC4" d="M245.25,56.418c6.449,0,6.449-10,0-10C238.802,46.418,238.802,56.418,245.25,56.418L245.25,56.418z"/>
	</g>
	<g>
		<path fill="#B7BEC4" d="M258.375,57.668c4.718,0.113,9.308,1.535,14,2c2.718,0.27,5-2.479,5-5c0-2.93-2.289-4.73-5-5
			c-4.707-0.467-9.239-1.887-14-2C251.922,47.514,251.939,57.514,258.375,57.668L258.375,57.668z"/>
	</g>
	<g>
		<path fill="#B7BEC4" d="M277.875,61.543c6.449,0,6.449-10,0-10C271.427,51.543,271.427,61.543,277.875,61.543L277.875,61.543z"/>
	</g>
	<g>
		<path fill="#B7BEC4" d="M278.296,61.613c0.564,0.193,1.123,0.402,1.688,0.595c0.99,0.337,1.976,0.444,3.017,0.585
			c1.229,0.165,2.704-0.633,3.536-1.465c0.934-0.934,1.464-2.215,1.464-3.535s-0.53-2.604-1.464-3.535
			c-1.034-1.033-2.147-1.277-3.536-1.465c-0.081-0.012-0.161-0.021-0.24-0.032c0.442,0.06,0.886,0.119,1.328,0.179
			c-1.083-0.191-2.097-0.615-3.134-0.967c-2.581-0.88-5.46,0.982-6.149,3.491C274.048,58.21,275.719,60.736,278.296,61.613
			L278.296,61.613z"/>
	</g>
	<g>
		<path fill="#B7BEC4" d="M283.5,62.293c3.016,0.064,6.016,0.923,9.125,0.875c6.442-0.1,6.452-10.102,0-10
			c-3.058,0.048-5.99-0.807-9.125-0.875c-2.726-0.061-5,2.318-5,5C278.5,60.064,280.776,62.232,283.5,62.293L283.5,62.293z"/>
	</g>
	<g>
		<path fill="#B7BEC4" d="M294.421,63.613c3.237,0.533,6.389,1.468,9.625,2c2.688,0.443,5.372-0.659,6.15-3.491
			c0.665-2.415-0.799-5.707-3.492-6.149c-3.237-0.533-6.388-1.468-9.625-2c-2.687-0.443-5.372,0.659-6.149,3.491
			C290.265,59.879,291.729,63.171,294.421,63.613L294.421,63.613z"/>
	</g>
	<g>
		<path fill="#B7BEC4" d="M309.75,64.793c0.208,0,0.417,0,0.625,0c2.727,0,5-2.273,5-5s-2.273-5-5-5c-0.208,0-0.417,0-0.625,0
			c-2.726,0-5,2.273-5,5S307.025,64.793,309.75,64.793L309.75,64.793z"/>
	</g>
	<g>
		<path fill="#B7BEC4" d="M446.75,49.71c4.316,0.168,8.541-0.717,12.834-1c1.662-0.108,3.306-0.401,4.946-0.679
			c3.259-0.547,6.322,0.105,9.554,0.345c1.931,0.144,1.916-2.858,0-3c-4.232-0.313-7.622-0.694-11.827,0.013
			c-4.958,0.832-10.481,1.518-15.507,1.321C444.815,46.635,444.823,49.635,446.75,49.71L446.75,49.71z"/>
	</g>
	<g>
		<path fill="#B7BEC4" d="M463.418,49.376c2.514,0.138,4.837-0.446,7.09-1.538c1.74-0.843,0.219-3.43-1.515-2.59
			c-1.784,0.863-3.597,1.234-5.575,1.128C461.484,46.271,461.493,49.271,463.418,49.376L463.418,49.376z"/>
	</g>
	<g>
		<path fill="#B7BEC4" d="M1911.585,52.71c2.59,0.046,5.865,1.073,8.061-0.772c1.482-1.248-0.65-3.357-2.121-2.121
			c-0.549,0.459-2.092,0.172-2.729,0.134c-1.072-0.065-2.137-0.22-3.211-0.239C1909.647,49.676,1909.651,52.676,1911.585,52.71
			L1911.585,52.71z"/>
	</g>
	<g>
		<path fill="#B7BEC4" d="M1915.419,47.876c0.203,1.694,0.795,3.312,1,5c0.098,0.812,0.607,1.5,1.5,1.5c0.742,0,1.598-0.687,1.5-1.5
			c-0.205-1.694-0.797-3.312-1-5c-0.1-0.812-0.609-1.5-1.5-1.5C1916.175,46.376,1915.319,47.063,1915.419,47.876L1915.419,47.876z"
			/>
	</g>
	<g>
		<path fill="#B7BEC4" d="M1920.407,49.747c0.023-0.233,0.031-0.468,0.053-0.701c-0.016,0.001-0.027-0.004-0.041-0.003
			c-2.371,0.124-4.662-0.313-6.938-0.945c-1.867-0.521-2.658,2.375-0.795,2.891c2.447,0.682,4.984,1.162,7.533,1.06
			C1920.272,51.266,1920.331,50.491,1920.407,49.747z"/>
	</g>
	<g>
		<path fill="#B7BEC4" d="M1683.995,66.338c1.566,0.753,3.205,1.247,4.891,1.614c0.709-0.011,1.42-0.021,2.129-0.033
			c0.959-0.668,1.072-2.387-0.365-2.655c-1.758-0.33-3.521-0.738-5.143-1.517C1683.772,62.914,1682.251,65.501,1683.995,66.338z"/>
	</g>
</g>
<g id="Calque_2_1_">
	<line fill="none" stroke="#B7BEC4" stroke-width="3" stroke-miterlimit="10" x1="-1.838" y1="11.746" x2="157.373" y2="35.966"/>
	<line fill="none" stroke="#B7BEC4" stroke-width="3" stroke-miterlimit="10" x1="157.373" y1="35.966" x2="302.167" y2="56.938"/>
	
		<line fill="none" stroke="#B7BEC4" stroke-width="3" stroke-miterlimit="10" x1="1031.335" y1="20.638" x2="1011.706" y2="17.222"/>
	
		<line fill="none" stroke="#B7BEC4" stroke-width="3" stroke-miterlimit="10" x1="1033.335" y1="17.999" x2="1006.546" y2="16.354"/>
	<line fill="none" stroke="#B7BEC4" stroke-width="3" stroke-miterlimit="10" x1="955.193" y1="13.042" x2="775.502" y2="24.871"/>
	<line fill="none" stroke="#B7BEC4" stroke-width="3" stroke-miterlimit="10" x1="689.954" y1="30.721" x2="375.168" y2="52.423"/>
	<line fill="none" stroke="#B7BEC4" stroke-width="3" stroke-miterlimit="10" x1="336.835" y1="54.793" x2="326.001" y2="55.506"/>
	<line fill="none" stroke="#B7BEC4" stroke-width="3" stroke-miterlimit="10" x1="304.75" y1="55.605" x2="308.994" y2="55.149"/>
	<line fill="none" stroke="#B7BEC4" stroke-width="3" stroke-miterlimit="10" x1="37.956" y1="18.834" x2="42.979" y2="20.527"/>
	<line fill="none" stroke="#B7BEC4" stroke-width="3" stroke-miterlimit="10" x1="1920.635" y1="65.319" x2="1919.991" y2="0.009"/>
	<line fill="none" stroke="#B7BEC4" stroke-width="3" stroke-miterlimit="10" x1="1916.042" y1="-1.063" x2="1919.991" y2="0.009"/>
	
		<line fill="none" stroke="#B7BEC4" stroke-width="3" stroke-miterlimit="10" x1="1916.042" y1="-1.063" x2="1915.139" y2="-1.241"/>
	
		<line fill="none" stroke="#B7BEC4" stroke-width="3" stroke-miterlimit="10" x1="1916.042" y1="-2.333" x2="1921.655" y2="-1.063"/>
</g>
<g id="Calque_1_1_">
	<path fill="none" stroke="#B7BEC4" stroke-width="3" stroke-miterlimit="10" d="M305.92,55.357"/>
	<line fill="none" stroke="#B7BEC4" stroke-width="3" stroke-miterlimit="10" x1="305.92" y1="55.357" x2="955.193" y2="11.418"/>
	<line fill="none" stroke="#B7BEC4" stroke-width="3" stroke-miterlimit="10" x1="955.193" y1="11.418" x2="1704.406" y2="64.994"/>
	
		<line fill="none" stroke="#B7BEC4" stroke-width="3" stroke-miterlimit="10" x1="1704.406" y1="64.994" x2="1915.193" y2="-0.006"/>
	<line fill="none" stroke="#B7BEC4" stroke-miterlimit="10" x1="955.193" y1="10.494" x2="955.193" y2="10.494"/>
	<line fill="none" stroke="#B7BEC4" stroke-miterlimit="10" x1="954.193" y1="10.494" x2="955.193" y2="10.494"/>
	<line fill="none" stroke="#B7BEC4" stroke-miterlimit="10" x1="955.193" y1="10.494" x2="956.193" y2="10.494"/>
</g>
<line fill="none" stroke="#B7BEC4" stroke-width="3" stroke-miterlimit="10" x1="305.92" y1="55.357" x2="-2.132" y2="9.333"/>
<line fill="none" stroke="#B7BEC4" stroke-miterlimit="10" x1="1357.668" y1="41.809" x2="1423.001" y2="47.059"/>
<line fill="none" stroke="#B7BEC4" stroke-miterlimit="10" x1="1389.001" y1="47.059" x2="1414.51" y2="46.376"/>
<line fill="none" stroke="#B7BEC4" stroke-width="3" stroke-miterlimit="10" x1="1394.215" y1="44.745" x2="1421.835" y2="46.376"/>
<line fill="none" stroke="#B7BEC4" stroke-width="3" stroke-miterlimit="10" x1="1882.001" y1="11.636" x2="1704.406" y2="67.175"/>
<line fill="none" stroke="#B7BEC4" stroke-width="3" stroke-miterlimit="10" x1="1276.833" y1="36.626" x2="1211.666" y2="31.807"/>
<line fill="none" stroke="#B7BEC4" stroke-width="3" stroke-miterlimit="10" x1="1134.999" y1="28.041" x2="1118.999" y2="25.456"/>
<line fill="none" stroke="#B7BEC4" stroke-width="3" stroke-miterlimit="10" x1="1130.666" y1="25.833" x2="1125.416" y2="25.216"/>
<line fill="none" stroke="#B7BEC4" stroke-width="3" stroke-miterlimit="10" x1="1273.327" y1="35.876" x2="1279.666" y2="37.502"/>
</svg>
